<svg height="25" viewBox="0 0 58.59375 25" width="58.59375" xmlns="http://www.w3.org/2000/svg"><path d="m.730469.570312v23.84375h1.714843v.574219h-2.3710932v-24.98437475h2.3710932v.57031275zm6.601562 7.558594v1.207032h.035157c.300781-.441407.699218-.804688 1.160156-1.066407.453125-.253906.972656-.378906 1.558594-.378906.5625 0 1.074218.109375 1.539062.328125.464844.214844.820312.601562 1.058594 1.152344.265625-.390625.625-.734375 1.078125-1.035156.453125-.296876.988281-.445313 1.609375-.445313.46875 0 .90625.054687 1.308594.171875.398437.113281.742187.296875 1.03125.550781.285156.253907.511718.582031.671874.992188.160157.40625.238282.898437.238282 1.472656v5.964844h-2.441406v-5.050781c0-.300782-.011719-.582032-.035157-.847657-.015625-.238281-.078125-.472656-.1875-.6875-.105469-.195312-.261719-.359375-.457031-.464843-.199219-.113282-.472656-.171876-.816406-.171876s-.625.066407-.835938.195313c-.210937.132813-.378906.304687-.5.519531-.125.222656-.207031.46875-.238281.722656-.042969.273438-.0625.546876-.0625.820313v4.964844h-2.445313v-5c0-.265625-.003906-.527344-.015624-.785157-.007813-.246093-.058594-.484374-.144532-.714843-.085937-.214844-.234375-.398438-.429687-.527344-.203125-.128906-.5-.195313-.886719-.195313-.15625.003907-.308594.03125-.457031.078126-.203125.058593-.390625.15625-.550781.292968-.179688.140625-.332032.347656-.457032.617188-.125.273437-.1875.625-.1875 1.0625v5.171875h-2.445312v-8.914063zm12.859375 1.3125c.246094-.375.578125-.6875.964844-.914062.40625-.238282.851562-.402344 1.316406-.492188.484375-.097656.976563-.144531 1.472656-.144531.445313 0 .898438.03125 1.359376.09375.457031.0625.875.1875 1.253906.371094.378906.183593.6875.4375.929687.765625.242188.328125.363281.761718.363281 1.300781v4.636719c0 .402344.023438.789062.066407 1.15625.046875.367187.128906.640625.242187.828125h-2.476562c-.09375-.28125-.152344-.570313-.171875-.863281-.390625.402343-.851563.683593-1.378907.84375-.523437.160156-1.066406.242187-1.617187.242187-.425781 0-.820313-.050781-1.1875-.15625-.347656-.09375-.675781-.257813-.964844-.480469-.277343-.222656-.496093-.507812-.644531-.828125-.15625-.332031-.230469-.730469-.230469-1.191406 0-.503906.085938-.921875.265625-1.25.175782-.324219.40625-.585937.6875-.78125s.601563-.34375.964844-.441406c.359375-.097657.726562-.175781 1.09375-.230469.367188-.058594.726562-.105469 1.082031-.140625.355469-.03125.671875-.085937.949219-.152344.273438-.070312.492188-.171875.652344-.304687.160156-.128906.234375-.324219.222656-.578125 0-.261719-.042969-.472657-.128906-.625-.078125-.152344-.199219-.277344-.34375-.363281-.152344-.089844-.324219-.148438-.5-.171876-.199219-.03125-.40625-.042968-.609375-.042968-.480469 0-.859375.101562-1.136719.308594-.273438.207031-.433594.550781-.480469 1.035156h-2.445312c.035156-.574219.179687-1.050782.429687-1.429688zm4.828125 3.453125c-.164062.054688-.332031.097657-.5.128907-.183593.039062-.371093.066406-.558593.085937-.195313.023437-.390626.054687-.585938.085937-.183594.035157-.363281.082032-.542969.140626-.164062.050781-.320312.128906-.460937.230468-.132813.097656-.238282.222656-.320313.371094-.082031.152344-.121093.339844-.121093.570312 0 .21875.039062.402344.121093.550782.082031.148437.1875.265625.328125.355468.136719.085938.296875.144532.480469.179688s.375.050781.566406.050781c.484375 0 .855469-.078125 1.121094-.242187.261719-.160156.457031-.351563.585937-.578125.125-.222657.203126-.449219.230469-.679688.027344-.230469.042969-.414062.042969-.550781v-.914062c-.113281.097656-.242188.171874-.386719.214843zm9.265625-4.765625v1.640625h-1.789062v4.410157c0 .414062.066406.691406.207031.828124.136719.136719.410156.207032.824219.207032.136718 0 .269531-.007813.394531-.019532.128906-.011718.25-.027343.363281-.050781v1.894531c-.226562.039063-.457031.0625-.6875.070313-.246094.011719-.496094.019531-.742187.019531-.378907 0-.738281-.027344-1.074219-.078125-.316406-.046875-.617188-.148437-.894531-.304687-.261719-.148438-.472657-.371094-.613281-.636719-.148438-.273437-.222657-.636719-.222657-1.085937v-5.253907h-1.480469v-1.640625h1.480469v-2.671875h2.445313v2.671875zm3.492188 0v1.65625h.035156c.234375-.558594.628906-1.035156 1.136719-1.371094.25-.164062.523437-.296874.808593-.386718.289063-.09375.589844-.140625.894532-.136719.160156 0 .339844.027344.535156.085937v2.273438c-.136719-.027344-.277344-.046875-.414062-.058594-.15625-.019531-.308594-.027344-.464844-.027344-.449219 0-.828125.074219-1.136719.222657-.296875.140625-.554687.351562-.746094.613281-.195312.269531-.335937.578125-.40625.90625-.082031.367188-.125.742188-.121093 1.117188v4.015624h-2.441407v-8.90625zm4.441406-1.378906v-2.015625h2.445312v2.015625zm2.445312 1.378906v8.90625h-2.445312v-8.90625zm1.273438 0h2.785156l1.566406 2.328125 1.550782-2.328125h2.703125l-2.925781 4.171875 3.285156 4.742188h-2.789063l-1.855469-2.8125-1.859374 2.8125h-2.738282l3.203125-4.691407zm11.953125 16.28125v-23.84375h-1.714844v-.57031225h2.371094v24.98437525h-2.371094v-.570313zm0 0" fill="#040404"/></svg>