<svg height="500" viewBox="0 0 1024 500" width="1024" xmlns="http://www.w3.org/2000/svg" xmlns:xlink="http://www.w3.org/1999/xlink"><clipPath id="a"><path d="m645 288.51c-275.59-273.64-785.34 13.43-603.56 242.37 48.51 50.58 135.26 161.4 168 196.24 7.8 8.29 19.06 5 30.39 6.11 353.46 34.9 516.72-184.37 405.17-444.72"/></clipPath><clipPath id="b"><path d="m-20 420.31c104.73 99.61 322.57 208.37 469.87 244.55 156.74 38.49 389.35-276 70.6-466.2 35.9-15.62 383.17 17.82 160.47 416.59-11.43 20.47-15.33 44.28-27.56 64.29-37.24 60.91-85.78 114-135.12 165.61-36.83 38.5-74.87 76.86-120.87 103.73-39.91 23.32-20.59-19.34-66.81-19.54s-68.89-84.64-104.49-114.12c-30-24.83-67-49.34-81.17-85.61-25.83-66.32-101.5-24.87-80-92.72 8.69-27.4 2.92-10.48 29.05-22.46"/></clipPath><clipPath id="c"><path d="m424.37 170.66c2-37.06-3.21-46.87 4.5-83.61 1.75-7.27 3.42-15 5.58-22.68 7.11-25.14 33.47-39.8 58.42-32 55.68 17.27 129.36 161.63 148.31 213.51"/></clipPath><clipPath id="d"><path d="m394.98001-2.02h403.48999v825.33002h-403.48999z"/></clipPath><g transform="matrix(.26256772 0 0 .26256772 403.4765 76.210675)"><path d="m48.87 499.09a4.21 4.21 0 0 0 -.56-.64c-181-228.88 328.37-515.54 603.84-242l-12.94-12.13c42.52 35.07 65.85 89.76 70.77 144.65s-7.09 110.12-25.63 162a653 653 0 0 1 -28.35 67.16c-45.7 93.53-116.8 177.87-211.17 221.87-31.72 14.78-149.1-93.16-160.3-102.76-16.33-14.02-199.36-169.55-235.66-238.15z" fill="#ff93d6"/><g clip-path="url(#a)"><path d="m389.37 693c106.85 98.44 366.3-114.91 269.56-368.1-13.93-36.39-13.93-36.39-68.35-113.12-31.89-44.95-103.39-67.68-199.76-81.61-101.81-14.71-268 92-299.49 177.57-6.46 17.53-10.14 62.19 25.55 100.66 31.68 34.15 87.23 57.2 130.93 86.94 39.28 26.72 67.82 61.09 80.7 75.84 28.85 33.04 34.56 97.63 60.86 121.82z" fill="#e5e6e6"/></g><g clip-path="url(#b)"><path d="m48.87 499.09a4.21 4.21 0 0 0 -.56-.64c-181-228.88 328.37-515.54 603.84-242l-12.94-12.13c42.52 35.07 65.85 89.76 70.77 144.65s-7.09 110.12-25.63 162a653 653 0 0 1 -28.35 67.16c-45.73 93.53-221.92 199.71-233 197.68-86.31-15.81-127.32-69-138.52-78.6-16.28-13.99-199.31-169.52-235.61-238.12z" fill="#ff3eb5"/></g><path d="m424.37 170.66c2-37.06-3.21-46.87 4.5-83.61 1.75-7.27 3.42-15 5.58-22.68 7.11-25.14 33.47-39.8 58.42-32 55.68 17.27 129.36 161.63 148.31 213.51" fill="#ff93d6"/><g clip-path="url(#c)"><path d="m628.19 216.33a714.26 714.26 0 0 0 -79.36-139.78c-6 7.6-10.85 16-15.71 24.33l-61.06 105.06c8.38 15.77 27.06 22.65 44.37 27 18.64 4.71 37.85 8.08 57 6.85s56 15.17 70.64 2.67" fill="#ff3eb5"/></g><circle cx="199.39" cy="545.65002" fill="#2f152f" r="49.580002"/><path d="m285.08 247.41q20.67 14.59 42.35 27.59c3.86 2.31 8.06 4.34 11.64 7.06l-2-1.56a22.06 22.06 0 0 1 3.75 3.73l-1.57-2a15.4 15.4 0 0 1 1.87 3.15l-1-2.38a10.63 10.63 0 0 1 .66 2.28l-.36-2.66a6.92 6.92 0 0 1 0 1.64l.36-2.66a5.66 5.66 0 0 1 -.33 1.27l1-2.39a5.11 5.11 0 0 1 -.54.93l1.57-2a4.92 4.92 0 0 1 -.79.79l2-1.56c-4.94 3.69-10.07 7.16-15.09 10.74l-7.71 5.48c-1.57 1.11-3.12 2.26-4.63 3.46a19 19 0 0 0 -7.38 14c-.21 3.65.85 7.4 1.86 10.88.15.49.29 1 .44 1.49l2.25 7.69 6.85 23.47c1.46 5 3 10 4.39 15 .12.44.22.89.3 1.34l-.36-2.66a7.5 7.5 0 0 1 0 1.64l.36-2.65a5.4 5.4 0 0 1 -.31 1.18l1-2.38a5.58 5.58 0 0 1 -.57 1l1.56-2a5 5 0 0 1 -.83.82l2-1.56a7 7 0 0 1 -1.06.62l2.39-1a8.56 8.56 0 0 1 -1.85.49l2.65-.36a12.17 12.17 0 0 1 -2.56 0l2.65.36a81 81 0 0 1 -8.79-2.15l-18.1-4.65-41.15-10.65-9.49-2.44a10.42 10.42 0 0 0 -7.71 1 10.18 10.18 0 0 0 -4.59 6c-1.19 5.21 1.56 10.91 7 12.3l21.25 5.46 38 9.76 13.19 3.38c4.87 1.25 10 2.64 14.94.76 4.53-1.74 8.22-4.94 9.57-9.77a16.89 16.89 0 0 0 -.11-9.06c-.28-1-.58-2-.87-3l-4.62-15.63-8.49-29.07a45.93 45.93 0 0 1 -1.38-5.67l.35 2.66a13.59 13.59 0 0 1 -.09-3l-.36 2.66a8.79 8.79 0 0 1 .6-2.19l-1 2.39a10.26 10.26 0 0 1 1.14-1.84l-1.57 2a17 17 0 0 1 2.69-2.54l-2 1.56c3.26-2.49 6.68-4.79 10-7.17l13.33-9.48a24.84 24.84 0 0 0 5.64-4.83c4.29-5.56 3.59-13 .15-18.79-3.19-5.43-8.11-9-13.44-12.06q-7.67-4.49-15.2-9.15-17.21-10.66-33.74-22.33c-2-1.42-5.42-1.64-7.71-1a10.2 10.2 0 0 0 -6 4.6 10.08 10.08 0 0 0 -1 7.7 11.28 11.28 0 0 0 4.59 6z" fill="#2f152f"/><path d="m393.67999-2.02h422.64999v825.33002h-422.64999z" fill="#4c2c1a"/><g clip-path="url(#d)" fill="#985023"><rect height="175.61" rx="23.24" width="362.31" x="515.59998" y="-50.91"/><rect height="175.61" rx="23.24" width="362.31" x="313.34" y="164.53999"/><rect height="175.61" rx="23.24" width="362.31" x="713.40997" y="164.53999"/><rect height="175.61" rx="23.24" width="362.31" x="99.699997" y="370.79999"/><rect height="175.61" rx="23.24" width="362.31" x="515.59998" y="379.13"/><rect height="175.61" rx="23.24" width="362.31" x="313.34" y="577.06"/><rect height="175.61" rx="23.24" width="362.31" x="713.40997" y="580.57001"/><rect height="175.61" rx="23.24" width="362.31" x="515.59998" y="795.77002"/><rect height="175.61" rx="23.24" width="362.31" x="113.52" y="-47.290001"/></g><path d="m365.67 738.3c190.08-41.93 163.85-176.56 148.89-208.56-3.52-7.53-34.5-25.68-52.44-17.17-28.94 13.73-72.51 56.48-76.42 61.1-7.25 8.59-40.44 36.37-59.37 51.42l3.5 39.77" fill="#ff93d6"/><path d="m326.33 625.09c88.25 19.47 157.11-11 191.61-91.7 21.28 53.19 4.59 119.2-39.43 155.89-17.76 14.8-39 24.86-60.47 33.37-14.54 5.76-25.29 20.28-40.42 16.31-8.88-2.34-42-8.35-48.46-14.84-17-17-7.64-52.38-7.55-84.48" fill="#ff3eb5"/></g><g stroke-linejoin="round" transform="matrix(.07750373 0 0 .07750373 489.370175 205.236475)"><g><path d="m-1860.4632 1795.437-320.8535-134.4854v-50.176l320.8535-135.1681v54.6134l-255.3174 105.1307 255.3174 105.1307zm541.6952 217.0881v-487.0829h55.6374v30.0373q16.0426-15.0186 37.5467-26.624 21.504-11.6053 57.0026-11.6053 47.1041 0 80.8961 22.528 34.1333 22.1867 52.5653 63.1467 18.4321 40.96 18.4321 96.5974 0 58.368-19.4561 99.328-19.1146 40.6187-53.248 62.1227-33.792 21.504-77.1413 21.504-38.2294 0-60.4161-12.288-21.8453-12.6293-36.1813-29.696v145.0668zm145.4081-181.2481q47.4453 0 73.3867-33.792 25.9413-34.1334 25.9413-97.9627 0-59.7334-26.624-95.5734-26.624-35.84-75.0934-35.84-28.672 0-51.5413 12.9707-22.528 12.9706-35.84 36.1813v164.8641q16.0426 20.8213 37.5467 35.1573 21.504 13.9947 52.224 13.9947zm414.03698 51.2q-48.81069 0-85.33337-21.504-36.52269-21.504-57.00269-62.1227-20.13868-40.96-20.13868-98.6453 0-57.0027 20.13868-97.9628 20.48-40.96 57.00269-62.8053 36.52268-22.1867 85.33337-22.1867 49.15203 0 85.67471 21.504 36.86402 21.504 57.00269 62.464 20.13868 40.9601 20.13868 98.3041 0 57.0027-20.13868 97.9627-20.13867 40.96-57.00269 63.1467-36.52268 21.8453-85.67471 21.8453zm0-51.2q50.51736 0 77.82404-35.1573 27.64801-35.1574 27.64801-96.5974 0-61.0987-26.62401-96.2561-26.62401-35.1573-78.84804-35.1573-51.54135 0-78.5067 34.4747-26.96535 34.1333-26.96535 97.6214 0 60.7573 26.96535 95.9147 26.96535 35.1573 78.5067 35.1573zm392.87433 43.008v-475.4775l55.29603-17.408v492.8855zm-97.62138 0v-49.4933h250.53878v49.4933zm13.31201-443.3922-24.91735-49.4933h164.52275l-18.77335 49.4933zm452.9491382 575.8296 52.2240248-142.336-128.341394-338.9442h56.320026l86.016041 238.9334q2.730668 7.8507 5.461336 16.7254 2.730668 8.5333 5.80267 18.0907 2.730668-8.8747 5.802669-17.408 3.072002-8.8747 6.144003-17.4081l87.040046-238.9334h58.36802l-179.200082 481.2802zm507.9035918-124.2454q-67.58403 0-107.17872-47.7867-39.25335-47.7866-39.25335-134.4853 0-57.3441 18.09068-98.3041 18.09067-40.96 51.88269-62.8054 33.79201-21.8453 80.89604-21.8453 44.03202 0 75.77603 19.7973 32.08535 19.7974 47.10402 58.7094l-51.20002 19.1147q-8.53334-20.1387-25.94135-33.4507-17.408-13.312-47.10402-13.312-48.46935 0-70.3147 35.84-21.84534 35.4987-21.84534 96.2561 0 61.7813 22.18667 96.5973 22.18668 34.4747 68.60804 34.4747 29.35468 0 49.49335-13.9947 20.48001-13.9946 29.35469-38.5706l50.85869 18.0906q-13.31201 40.2774-47.78669 63.1467-34.47469 22.528-83.62671 22.528zm404.47954 0q-44.03202 0-73.3867-16.384-29.35468-16.384-44.03202-51.8827-14.33601-35.84-14.33601-93.8667v-194.9014h56.32003v204.8001q0 54.6134 22.86934 77.4827 23.21068 22.528 57.68536 22.528 23.89335 0 43.34936-8.8747 19.79734-8.8746 31.40268-30.3786 11.60535-21.504 11.60535-59.3921v-206.1654h56.32v348.8428h-56.32v-34.4746q-17.74935 23.2106-40.27736 33.1093-22.18668 9.5573-51.20003 9.5573zm401.06649-8.192v-475.4775l55.296-17.408v492.8855zm-97.6214 0v-49.4933h250.5388v49.4933zm13.312-443.3922-24.9174-49.4933h164.5228l-18.7734 49.4933zm539.6478 451.5842q-50.176 0-86.016-24.576-35.4987-24.576-54.272-66.2187-18.7734-41.6427-18.7734-92.16 0-57.6854 19.7974-98.3041 19.7973-40.96 55.296-62.464 35.84-21.504 83.968-21.504 39.2534 0 72.0214 17.7493 33.1094 17.7494 52.9067 54.9547 19.7973 36.864 19.7973 94.8907 0 6.4854-.3413 16.0427 0 9.216-1.3653 21.1627h-258.3895v-49.152h204.4588q-.6827-41.6427-15.0187-64.5121-13.9947-23.2106-34.4747-32.4266-20.48-9.216-39.5947-9.216-53.248 0-78.1653 33.792-24.9174 33.4507-24.9174 89.7707 0 65.536 27.648 103.424 27.6481 37.888 77.1414 37.888 20.8214 0 41.3014-6.4853 20.48-6.8267 40.2773-22.528l31.4027 36.5227q-21.8453 18.7733-51.5414 31.0613-29.3546 12.288-63.1467 12.288zm673.4497-87.04v-53.9307l255.6588-106.1547-255.6588-105.1307v-54.6134l320.8535 135.1681v50.176z" fill="#fff"/><path d="m-475.67578 1377.4004a4.0004 4.0004 0 0 0 -3.57227 5.7969l24.91797 49.4941a4.0004 4.0004 0 0 0 3.57227 2.2012h80.30859v385.8984h-93.62109a4.0004 4.0004 0 0 0 -4 4v49.4942a4.0004 4.0004 0 0 0 4 4h97.62109 55.29688 97.62109a4.0004 4.0004 0 0 0 4-4v-49.4942a4.0004 4.0004 0 0 0 -4-4h-93.62109v-439.3906a4.0004 4.0004 0 0 0 -.0703-.1406 4.0004 4.0004 0 0 0 -1.44336-2.8457 4.0004 4.0004 0 0 0 -.30468-.2715 4.0004 4.0004 0 0 0 -2.18164-.7422zm1682.08988 0a4.0004 4.0004 0 0 0 -3.5723 5.7969l24.916 49.4941a4.0004 4.0004 0 0 0 3.5742 2.2012h80.3086v385.8984h-93.6211a4.0004 4.0004 0 0 0 -4 4v49.4942a4.0004 4.0004 0 0 0 4 4h97.6211 55.2969 97.6211a4.0004 4.0004 0 0 0 4-4v-49.4942a4.0004 4.0004 0 0 0 -4-4h-93.6211v-439.3906a4.0004 4.0004 0 0 0 -.07-.1406 4.0004 4.0004 0 0 0 -1.4414-2.8438 4.0004 4.0004 0 0 0 -.3086-.2734 4.0004 4.0004 0 0 0 -2.1797-.7422zm-1675.59769 8h132.00195l-30.46875 9.5918a4.0004 4.0004 0 0 0 -2.79883 3.8144v28.086h-77.84375zm1682.08989 0h132.0019l-30.4687 9.5918a4.0004 4.0004 0 0 0 -2.7989 3.8144v28.086h-77.8437zm-1530.72466 2.291-14.86914 39.2012h-29.76172v-25.1504zm1682.08986 0-14.8692 39.2012h-29.7617v-25.1504zm-1679.42384 15.5332v417.5664h-47.29688v-385.8984h32.52344a4.0004 4.0004 0 0 0 3.74023-2.5821zm1682.08984 0v417.5664h-47.2969v-385.8984h32.5235a4.0004 4.0004 0 0 0 3.7402-2.5821zm-3228.9531 68.6973-320.8535 135.1679a4.0004 4.0004 0 0 0 -2.4473 3.6856v50.1758a4.0004 4.0004 0 0 0 2.4531 3.6894l320.8535 134.4864a4.0004 4.0004 0 0 0 5.5469-3.6895v-54.9551a4.0004 4.0004 0 0 0 -2.4766-3.6992l-246.3339-101.4316 246.3339-101.4317a4.0004 4.0004 0 0 0 2.4766-3.6992v-54.6133a4.0004 4.0004 0 0 0 -5.5527-3.6855zm4307.998 0a4.0004 4.0004 0 0 0 -5.5527 3.6855v54.6133a4.0004 4.0004 0 0 0 2.4785 3.6992l246.707 101.4492-246.7207 102.4434a4.0004 4.0004 0 0 0 -2.4648 3.6934v53.9316a4.0004 4.0004 0 0 0 5.5449 3.6895l320.8535-134.4864a4.0004 4.0004 0 0 0 2.4551-3.6894v-50.1758a4.0004 4.0004 0 0 0 -2.4473-3.6856zm-4310.4453 9.7109v45.9102l-252.8398 104.1093a4.0004 4.0004 0 0 0 0 7.3985l252.8398 104.1094v46.2636l-312.8535-131.1328v-44.8594zm4312.8926 0 312.8535 131.7988v44.8594l-312.8535 131.1328v-45.248l253.1914-105.1309a4.0004 4.0004 0 0 0 -.012-7.3926l-253.1794-104.1113zm-3617.0117 31.6172c-24.1017 0-43.7568 3.9122-58.9024 12.0859-11.7365 6.3341-22.2524 13.4744-31.6465 21.3496v-21.2441a4.0004 4.0004 0 0 0 -4-4h-55.6367a4.0004 4.0004 0 0 0 -4 4v487.084a4.0004 4.0004 0 0 0 5.7442 3.5996l55.6367-26.9648a4.0004 4.0004 0 0 0 2.2558-3.5997v-134.8593c8.5604 8.591 18.6037 16.2587 30.1797 22.9511a4.0004 4.0004 0 0 0 .064.035c15.6429 8.6638 36.4387 12.7891 62.3535 12.7891 29.5543 0 56.0955-7.3739 79.2734-22.1192h.01c23.425-14.7594 41.7063-36.133 54.7226-63.7871l.01-.014c13.2824-27.9692 19.8379-61.681 19.8379-101.0312 0-37.5333-6.219-70.3136-18.7852-98.2383-12.5533-27.8963-30.6028-49.6233-54.0175-64.8477-23.2372-15.4844-51.0618-23.1855-83.0918-23.1855zm409.25973 0c-33.13627 0-62.36762 7.5617-87.38671 22.7539-.002 0-.004 0-.006 0-.006 0-.0118.01-.0176.01-24.99977 14.9592-44.55678 36.5413-58.50391 64.4355a4.0004 4.0004 0 0 0 -.0117.024c-13.74995 27.966-20.54882 61.2556-20.54882 99.7285 0 38.9223 6.79499 72.4362 20.54882 100.4101a4.0004 4.0004 0 0 0 .0176.035c13.95593 27.6793 33.52927 49.0407 58.54492 63.7695 25.01982 14.7313 54.23541 22.0567 87.36328 22.0567 33.36062 0 62.69972-7.4428 87.72657-22.4121a4.0004 4.0004 0 0 0 .01-.01c25.23209-15.186 44.8033-36.8913 58.5293-64.8086 13.74996-27.966 20.54883-61.2557 20.54883-99.7285 0-38.6976-6.79694-72.0984-20.54883-100.0684-13.7274-27.9201-33.31214-49.4135-58.5625-64.1465l-.01-.01c-25.02236-14.7302-54.34636-22.0508-87.69336-22.0508zm1273.85352 0c-32.02104 0-59.82677 7.4628-83.06641 22.4863-23.21192 15.0057-41.04495 36.6406-53.37109 64.5489-12.33917 27.9377-18.43164 61.2698-18.43164 99.9199 0 58.4028 13.24009 104.2488 40.16211 137.0234a4.0004 4.0004 0 0 0 .0117.014c27.10983 32.7188 64.26098 49.2344 110.25976 49.2344 33.37913 0 62.10261-7.6849 85.81446-23.1797a4.0004 4.0004 0 0 0 .0234-.014c23.68692-15.7131 40.2463-37.6123 49.37305-65.2266a4.0004 4.0004 0 0 0 -2.45703-5.0234l-50.85938-18.0898a4.0004 4.0004 0 0 0 -5.10351 2.4101c-5.66499 15.6876-14.87459 27.7608-27.84961 36.627a4.0004 4.0004 0 0 0 -.0254.018c-12.67788 8.8101-28.27681 13.2793-47.21094 13.2793-29.95016 0-51.1303-10.7201-65.23437-32.625l-.006-.01c-.001 0-.003 0-.004-.01-14.20849-22.3054-21.55078-53.7322-21.55078-94.4316 0-40.0256 7.22224-71.3619 21.25195-94.1602a4.0004 4.0004 0 0 0 .01-.014c13.8793-22.7708 35.57145-33.9219 66.89844-33.9219 19.19964 0 33.94227 4.2803 44.67578 12.4883 11.0827 8.475 19.2563 19.0163 24.6875 31.8339a4.0004 4.0004 0 0 0 5.08203 2.1875l51.19922-19.1152a4.0004 4.0004 0 0 0 2.33398-5.1875c-10.27214-26.6142-26.5784-46.9954-48.71875-60.6621h-.002c-21.86673-13.6344-47.93934-20.4-77.89247-20.4zm1256.44725 0c-32.6811 0-61.4547 7.3318-86.0254 22.0742a4.0004 4.0004 0 0 0 -.014.01c-24.3431 14.7463-43.3342 36.2355-56.8204 64.1328-.0006 0 0 0 0 0v.01c-13.5212 27.7472-20.1953 61.1358-20.1953 100.0449 0 34.1737 6.3623 65.4904 19.1269 93.8047 12.7826 28.3542 31.3768 51.0652 55.6406 67.8633a4.0004 4.0004 0 0 0 .016.01c24.6113 16.8764 54.1736 25.2774 88.2773 25.2774 23.0077 0 44.6076-4.1926 64.6778-12.5918h.01c20.1381-8.3341 37.694-18.9026 52.6074-31.7188a4.0004 4.0004 0 0 0 .4278-5.6426l-31.4043-36.5215a4.0004 4.0004 0 0 0 -5.5176-.5273c-12.8875 10.2211-25.8976 17.4783-39.0391 21.8613-13.2684 4.1975-26.6023 6.2871-40.0547 6.2871-31.9748 0-56.148-11.9055-73.9101-36.2461-12.5119-17.1458-20.6237-38.9468-24.3926-65.3222h239.6152a4.0004 4.0004 0 0 0 3.9747-3.5469c.9233-8.0797 1.3906-15.2757 1.3906-21.6172v.1446c.2287-6.4038.3438-11.7918.3438-16.1856 0-39.1323-6.6585-71.4249-20.2656-96.7695l-.01-.014c-13.5048-25.3742-31.7307-44.3561-54.5253-56.5801l-.016-.01c-22.4294-12.1459-47.1464-18.2246-73.9121-18.2246zm-2939.5605 8c30.765 0 56.8634 7.3126 78.6777 21.8555a4.0004 4.0004 0 0 0 .039.027c22.0883 14.3575 39.0779 34.7231 51.0976 61.4336 12.01 26.6886 18.0801 58.3052 18.0801 94.9551 0 38.4675-6.4155 70.9717-19.0703 97.6133a4.0004 4.0004 0 0 0 -.01.012c-12.4682 26.4952-29.6803 46.5313-51.7597 60.4414a4.0004 4.0004 0 0 0 -.016.01c-21.8744 13.92-46.756 20.8789-74.9941 20.8789-25.043 0-44.5155-4.0621-58.4531-11.7735-14.1977-8.2134-25.8645-17.8099-35.0821-28.7832a4.0004 4.0004 0 0 0 -7.0625 2.5723v142.5605l-47.6367 23.0899v-476.7012h47.6367v26.0391a4.0004 4.0004 0 0 0 6.7344 2.9199c10.4194-9.7543 22.6456-18.4335 36.7129-26.0254 13.5264-7.3 31.8717-11.125 55.1016-11.125zm409.25973 0c32.18469 0 59.97214 7.0132 83.64454 20.9512a4.0004 4.0004 0 0 0 .0137.01c23.89507 13.9388 42.308 34.0853 55.42969 60.7734 13.09967 26.6435 19.72656 58.778 19.72656 96.5391 0 37.5307-6.62495 69.5519-19.72656 96.1992-13.12557 26.6961-31.55662 47.0881-55.47657 61.4844-23.66794 14.1539-51.44032 21.2715-83.61133 21.2715-31.95304 0-59.62759-7.0105-83.30468-20.9512-23.6782-13.9414-42.10475-33.9929-55.45508-60.4668-.002 0-.004-.01-.006-.01-13.08585-26.6324-19.70898-58.8697-19.70898-96.8437 0-37.5198 6.62081-69.5311 19.71484-96.1738l.008-.014c.002 0 .002-.01.004-.01 13.35424-26.6986 31.78785-46.9756 55.46679-61.1387a4.0004 4.0004 0 0 0 .0234-.014c23.67268-14.3806 51.32342-21.6055 83.25781-21.6055zm1273.85352 0c28.7552 0 53.20211 6.4327 73.66016 19.1914a4.0004 4.0004 0 0 0 .0156.01c19.5835 12.0834 34.11641 29.6686 43.88672 53.0215l-43.91992 16.3984c-5.93354-12.4828-14.37763-23.1425-25.47266-31.627-12.47716-9.5413-29.14011-14.1347-49.53515-14.1347-33.29882 0-58.48069 12.7418-73.72852 37.7578-15.09131 24.5317-22.43164 57.3617-22.43164 98.3379 0 41.6663 7.44707 74.6311 22.81445 98.7461a4.0004 4.0004 0 0 0 .01.016c15.47818 24.0507 40.03293 36.3105 71.9707 36.3105 20.19276 0 37.58117-4.8562 51.75-14.6933h.002c13.25534-9.0584 22.95077-21.5446 29.23633-36.8632l43.55469 15.4921c-8.8181 24.2878-23.62179 43.3282-44.82031 57.3946-22.2526 14.5383-49.27542 21.8711-81.42774 21.8711-44.10709 0-78.40598-15.3381-104.08789-46.3262-25.41578-30.9409-38.3457-74.7499-38.3457-131.9453 0-37.8088 5.96827-70.0119 17.75-96.6875 11.79475-26.7051 28.55238-46.941 50.39648-61.0625 21.81638-14.1035 47.93833-21.2051 78.72266-21.2051zm1256.44725 0c25.5661 0 48.86 5.7533 70.1172 17.2676a4.0004 4.0004 0 0 0 .016.01c21.3398 11.4399 38.3779 29.0885 51.2657 53.3086a4.0004 4.0004 0 0 0 .01.014c12.7843 23.8053 19.3223 54.7684 19.3223 92.998 0 4.2534-.1135 9.5592-.3399 15.8984a4.0004 4.0004 0 0 0 0 .1426c0 4.9941-.3863 10.8246-1.0176 17.1641h-236.9922c-.9267-8.7843-1.457-17.985-1.457-27.7442 0-4.5928.1276-9.0607.3789-13.4082h187.791a4.0004 4.0004 0 0 0 4-4.0664c-.4622-28.1946-5.5028-50.3991-15.6152-66.5449-9.6509-15.9933-21.7589-27.4597-36.2364-33.9746-14.078-6.3351-27.8503-9.5684-41.2363-9.5684-36.3367 0-63.9531 11.7896-81.373 35.4024 0 0 0 .01-.01.01 0 0 0 .01-.01.01-13.8799 18.6403-21.965 42.3486-24.6309 70.7363h-9.3535a4.0004 4.0004 0 0 0 -4 4v49.1524a4.0004 4.0004 0 0 0 4 4h10.6855c3.8404 27.9321 12.4025 51.3794 26.0176 70.0371 19.102 26.1767 46.3568 39.5312 80.373 39.5312 14.2963 0 28.4845-2.2305 42.5098-6.6718a4.0004 4.0004 0 0 0 .057-.02c13.0804-4.3601 25.8715-11.4324 38.3925-20.9101l26.2676 30.5527c-13.5477 11.0778-29.2375 20.441-47.3164 27.9219a4.0004 4.0004 0 0 0 -.014.01c-19.0654 7.9809-39.5603 11.9766-61.6035 11.9766-32.7904 0-60.566-7.9806-83.7383-23.8653-23.0678-15.97-40.6538-37.4028-52.9023-64.5722-12.2665-27.2094-18.4199-57.3349-18.4199-90.5176 0-37.9994 6.521-70.142 19.3925-96.5508a4.0004 4.0004 0 0 0 .01-.012c12.9099-26.7102 30.7826-46.8596 53.7676-60.7832 23.2127-13.9236 50.4117-20.9258 81.8945-20.9258zm-1844.904281.1914a4.0004 4.0004 0 0 0 -3.742188 5.418l127.814453 337.5488-51.7109371 140.9356a4.0004 4.0004 0 0 0 3.7558594 5.3789h55.6367187a4.0004 4.0004 0 0 0 3.748047-2.6055l179.201168-481.2793a4.0004 4.0004 0 0 0 -3.74804-5.3965h-58.36914a4.0004 4.0004 0 0 0 -3.75782 2.6309l-87.041012 238.9336a4.0004 4.0004 0 0 0 -.0039.016c-2.04848 5.6902-4.09662 11.4926-6.144531 17.4082-.0014 0-.0025.01-.0039.012-.0039.011-.0078.022-.01172.033-.688249 1.9125-1.286572 3.9121-1.949219 5.8496-.677116-2.1124-1.418178-4.4157-2.066406-6.4414l.01172.041c-1.833162-5.9578-3.667686-11.5785-5.505859-16.8633a4.0004 4.0004 0 0 0 -.01367-.039l-86.015625-238.9336a4.0004 4.0004 0 0 0 -3.763672-2.6465zm856.746091 0a4.0004 4.0004 0 0 0 -4 4v194.9024c0 39.0138 4.7873 70.767 14.6211 95.3515a4.0004 4.0004 0 0 0 .0176.043c10.06165 24.3351 25.38373 42.4641 45.7793 53.8476 20.313 11.3375 45.48513 16.8907 75.33594 16.8907 19.78145 0 37.41024-3.2607 52.7832-9.8828a4.0004 4.0004 0 0 0 .0254-.012c12.73667-5.5964 24.26024-14.3808 34.66795-25.916v23.6192a4.0004 4.0004 0 0 0 4 4h56.3203a4.0004 4.0004 0 0 0 4-4v-348.8438a4.0004 4.0004 0 0 0 -4-4h-56.3203a4.0004 4.0004 0 0 0 -4 4v206.166c0 24.8503-3.8544 44.0203-11.12498 57.4922-7.39463 13.7018-17.15356 23.0865-29.51758 28.6289a4.0004 4.0004 0 0 0 -.0254.01c-12.40817 5.6599-26.25579 8.5156-41.68945 8.5156-22.09626 0-40.10944-7.0601-54.86719-21.3691-14.11312-14.1224-21.6875-38.8017-21.6875-74.6426v-204.8008a4.0004 4.0004 0 0 0 -4-4zm-850.955076 8h47.716797l85.064453 236.2891c1.798267 5.1717 3.599095 10.6863 5.402344 16.5468a4.0004 4.0004 0 0 0 .01172.043c1.821034 5.6907 3.756215 11.7227 5.804687 18.0957a4.0004 4.0004 0 0 0 7.63086-.049c1.802428-5.8579 3.717891-11.6001 5.74414-17.2285a4.0004 4.0004 0 0 0 .01563-.047c2.04117-5.8967 4.082449-11.6791 6.123047-17.3477l.0059-.014 86.076178-236.2891h49.81054l-176.222702 473.282h-47.1289061l50.2500001-136.959a4.0004 4.0004 0 0 0 -.01367-2.793zm854.955076 0h48.31836v200.8008c0 36.9673 7.66904 63.9386 24.04102 80.3105a4.0004 4.0004 0 0 0 .043.043c16.18401 15.708 36.61629 23.6582 60.4707 23.6582 16.42414 0 31.47659-3.0633 45.00976-9.2363 14.02118-6.292 25.18913-17.1556 33.26368-32.1172 8.20317-15.2001 12.08397-35.6258 12.08397-61.293v-202.166h48.3203v340.8438h-48.3203v-30.4747a4.0004 4.0004 0 0 0 -7.1758-2.4296c-11.49926 15.0374-24.38094 25.5767-38.69333 31.8691-14.20714 6.1182-30.70861 9.2266-49.60742 9.2266-28.85856 0-52.61092-5.3691-71.4375-15.877-18.73795-10.4584-32.7674-26.9117-42.27539-49.8965-9.27545-23.1998-14.04102-54.0157-14.04102-92.3593zm-1962.57031 34.668c-19.7178 0-37.6435 4.4892-53.5137 13.4902a4.0004 4.0004 0 0 0 -.023.014c-15.6175 8.9919-28.1133 21.6186-37.3125 37.6582a4.0004 4.0004 0 0 0 -.5313 1.9902v164.8633a4.0004 4.0004 0 0 0 .8321 2.4414c10.9515 14.2138 23.7983 26.2465 38.4961 36.0449a4.0004 4.0004 0 0 0 .037.024c15.0658 9.8047 33.3188 14.6425 54.4062 14.6425 32.5799 0 58.5471-11.8951 76.5586-35.3574a4.0004 4.0004 0 0 0 .012-.014c18.021-23.712 26.7578-57.2901 26.7578-100.3848 0-40.4166-9.0303-73.2098-27.414-97.957-18.4423-24.8261-45.0059-37.4551-78.3047-37.4551zm416.42773 0c-35.25057 0-62.91549 12.0515-81.65429 36.0058-.001 0-.003 0-.004 0-18.7166 23.7013-27.81445 57.2034-27.81445 100.086 0 41.0966 9.13692 74.0284 27.79101 98.3496 18.7259 24.4147 46.41125 36.7226 81.68164 36.7226 34.59724 0 62.02984-12.3161 80.9668-36.6855 19.13189-24.3282 28.50391-57.5103 28.50391-99.0703 0-41.3135-9.011-74.3426-27.4336-98.6699-18.50924-24.4417-46.32348-36.7422-82.03711-36.7422zm2530.30077 6.6347c12.1003 0 24.7245 2.9104 37.9531 8.8633 12.8183 5.7683 23.6863 15.9084 32.6914 30.8438a4.0004 4.0004 0 0 0 .037.059c8.5177 13.5878 13.2853 33.1668 14.1601 58.3886h-182.832c2.625-26.9031 10.301-48.8802 23.0332-65.9726a4.0004 4.0004 0 0 0 .012-.016c15.8038-21.4326 40.2928-32.1661 74.9453-32.1661zm-2946.7285 1.3653c31.327 0 54.8264 11.264 71.8828 34.2246 17.115 23.0394 25.836 53.9595 25.8359 93.1875 0 42.011-8.5595 73.7437-25.1269 95.543-16.5761 21.583-39.5281 32.2128-70.2012 32.2128-19.8637 0-36.4207-4.4909-50.0234-13.3378-13.6102-9.0763-25.4936-20.1698-35.7481-33.2598v-162.2324c8.4921-14.4939 19.6869-25.7508 33.8282-33.8946 0 0 0 0 .01-.01 14.6169-8.2852 31.0424-12.4375 49.5449-12.4375zm416.42773 0c33.91842 0 58.66878 11.1375 75.65821 33.5722 17.07608 22.5493 25.8125 53.6884 25.8125 93.8399 0 40.36-9.05889 71.5767-26.79102 94.125a4.0004 4.0004 0 0 0 -.0156.019c-17.47145 22.4945-41.91375 33.6113-74.66407 33.6113-33.4514 0-58.10608-11.1301-75.33398-33.5918-17.29971-22.5553-26.13867-53.5673-26.13867-93.4804 0-41.7591 8.87442-73.3337 26.10351-95.1426a4.0004 4.0004 0 0 0 .0117-.014c17.21494-22.009 41.88836-32.9394 75.35742-32.9394zm2418.93167 104.789h4.6679c-.2443 4.3685-.3808 8.8293-.3808 13.4082 0 9.7016.5318 18.8992 1.4336 27.7442h-5.7207zm-2119.67971 151.8926h89.62109v41.4942h-89.62109zm97.62109 0h47.29688v41.4942h-47.29688zm55.29688 0h89.62109v41.4942h-89.62109zm1529.17184 0h89.6211v41.4942h-89.6211zm97.6211 0h47.2969v41.4942h-47.2969zm55.2969 0h89.6211v41.4942h-89.6211z" fill="#fffafa"/></g><g fill="#fff" stroke-width="8"><g><path d="m-1394.5991 2337.8377v-15.68h100.2665v15.68zm305.9192 58.2399q-11.4133 0-20.16-4.0534-8.64-4.1599-13.5466-12.3733-4.9067-8.2133-4.9067-20.3733 0-12.5866 5.8667-20.4799 5.8666-8 15.2533-11.7333 9.4933-3.84 20.16-3.84 7.9999 0 15.2533 1.6 7.2533 1.6 15.0399 5.7599v-8.7466q0-10.56-3.3066-16.1066-3.3067-5.6534-8.7467-7.68-5.44-2.0267-11.5199-2.0267-8.7467 0-18.3467 3.7333-9.4933 3.6267-16.2133 7.8933l-4.6933-13.6533q7.04-4.2666 17.92-8.1066 10.8799-3.9467 22.8266-3.9467 6.08 0 12.48 1.6 6.5066 1.6 12.0533 5.76 5.6533 4.0533 9.1733 11.52 3.52 7.4666 3.52 19.3066v73.3866h-15.1467v-10.4533q-6.2933 5.76-14.6133 9.3866-8.3199 3.6267-18.3466 3.6267zm1.92-14.08q10.6666 0 18.4533-5.12 7.7867-5.12 12.5866-10.9866v-20.2667q-5.1199-3.3066-12.9066-5.8666-7.7867-2.56-15.5733-2.56-11.3067 0-19.6266 5.3333-8.32 5.3333-8.32 16.7466 0 10.1333 6.6133 16.4267 6.6133 6.2933 18.7733 6.2933zm259.51926 56.6399-7.67998-12.6933q17.4933-1.0667 26.66662-5.0133 9.17332-3.9467 12.58665-10.1333 3.51999-6.1867 3.51999-13.6534v-15.3599q-4.58666 6.6133-11.73331 10.4533-7.03999 3.84-18.87997 3.84-12.26665 0-22.71997-6.4-10.45331-6.4-16.8533-19.0933-6.39999-12.6933-6.39999-31.68 0-17.9199 5.97332-30.6133 5.97332-12.7999 16.53331-19.5199 10.55998-6.8267 24.21329-6.8267 8.74665 0 14.61331 2.24 5.97333 2.1333 9.59999 5.0133 3.73332 2.88 5.65332 5.12v-9.8133h16.10664v106.0265q0 13.5467-4.05333 22.6133-4.05332 9.0667-11.09331 14.5067-7.03999 5.4399-16.31997 7.9999-9.17332 2.56-19.73331 2.9867zm7.99999-57.2799q7.78666 0 15.25331-4.5867 7.46665-4.5866 11.83998-12.6933v-51.5199q-4.37333-7.7866-12.26665-11.84-7.78665-4.16-14.82664-4.16-16.42664 0-24.63996 10.9867-8.21332 10.88-8.21332 31.3599 0 20.16 9.27999 31.36 9.38665 11.0933 23.57329 11.0933zm133.97296 14.72q-15.57331 0-26.55996-7.7867-10.98665-7.7866-16.8533-20.7999-5.75999-13.0134-5.75999-28.5867 0-18.1333 6.07999-30.8266 6.07999-12.8 17.1733-19.4133 11.09332-6.72 25.91996-6.72 12.26665 0 22.39996 5.5467 10.23999 5.5466 16.42665 17.1733 6.18665 11.52 6.18665 29.8666 0 1.8133-.10666 4.5867-.10667 2.7733-.42667 6.4h-80.8532v-14.4h65.06656q-.10667-13.8667-4.79999-21.3333-4.58666-7.5733-11.19999-10.4533-6.61332-2.9867-12.69331-2.9867-16.74664 0-24.85329 10.7733-7.99999 10.6667-7.99999 28.5866 0 21.12 8.85332 33.3867 8.95998 12.1599 24.63996 12.1599 6.39999 0 12.90665-2.0266 6.50665-2.1334 12.90664-6.8267l8.85332 10.7733q-6.71999 5.44-15.89331 9.1733-9.06665 3.7334-19.4133 3.7334zm131.41296 0q-15.5733 0-26.55995-7.7867-10.98665-7.7866-16.85331-20.7999-5.75999-13.0134-5.75999-28.5867 0-18.1333 6.07999-30.8266 6.07999-12.8 17.17331-19.4133 11.09331-6.72 25.91995-6.72 12.26665 0 22.39997 5.5467 10.23998 5.5466 16.42664 17.1733 6.18666 11.52 6.18666 29.8666 0 1.8133-.10667 4.5867-.10667 2.7733-.42667 6.4h-80.8532v-14.4h65.06656q-.10666-13.8667-4.79999-21.3333-4.58666-7.5733-11.19998-10.4533-6.61333-2.9867-12.69332-2.9867-16.74664 0-24.85329 10.7733-7.99999 10.6667-7.99999 28.5866 0 21.12 8.85332 33.3867 8.95999 12.1599 24.63996 12.1599 6.39999 0 12.90665-2.0266 6.50666-2.1334 12.90665-6.8267l8.85331 10.7733q-6.71998 5.44-15.8933 9.1733-9.06666 3.7334-19.41331 3.7334zm86.50637-2.56v-146.2398l16.10664-7.7866v154.0264zm15.46665-46.3999v-18.88l41.0666-43.7333h18.7733zm55.67991 46.3999-36.05328-71.0399 11.41332-11.6267 42.34659 82.6666zm78.82638 41.3866 16.31997-44.5866-39.99993-105.8132h16.31997l27.19996 76.0532q.85333 2.4534 1.70666 5.2267.96 2.6667 1.92 5.76.96-2.88 1.81333-5.5467.96-2.7733 1.91999-5.44l27.62663-76.0532h17.1733l-55.89324 150.3998zm279.999231-38.8266q-11.413315 0-20.159968-4.0534-8.639986-4.1599-13.546645-12.3733-4.906658-8.2133-4.906658-20.3733 0-12.5866 5.866657-20.4799 5.866657-8 15.253309-11.7333 9.493318-3.84 20.159968-3.84 7.999987 0 15.253309 1.6 7.253321 1.6 15.0399756 5.7599v-8.7466q0-10.56-3.3066614-16.1066-3.3066612-5.6534-8.7466532-7.68-5.439991-2.0267-11.519981-2.0267-8.746653 0-18.346637 3.7333-9.493319 3.6267-16.213308 7.8933l-4.693326-13.6533q7.039989-4.2666 17.919972-8.1066 10.879982-3.9467 22.82663-3.9467 6.07999 0 12.47998 1.6 6.5066562 1.6 12.053314 5.76 5.6533243 4.0533 9.1733187 11.52 3.5199943 7.4666 3.5199943 19.3066v73.3866h-15.1466424v-10.4533q-6.2933236 5.76-14.6133096 9.3866-8.319987 3.6267-18.346638 3.6267zm1.919997-14.08q10.66665 0 18.453304-5.12 7.7866542-5.12 12.5866466-10.9866v-20.2667q-5.1199918-3.3066-12.9066456-5.8666-7.786655-2.56-15.573309-2.56-11.306649 0-19.626635 5.3333-8.319987 5.3333-8.319987 16.7466 0 10.1333 6.613323 16.4267 6.613323 6.2933 18.773303 6.2933zm93.653024 11.52v-109.0132h16.106641v19.4133l-2.666662-3.0933q2.986662-6.08 7.679988-10.24 4.693325-4.2667 10.879982-6.4 6.186657-2.24 13.759979-2.24 13.33331 0 22.2933 5.2267 9.06665 5.12 13.54664 16.2133 4.47999 11.0933 4.47999 29.0133v61.1199h-16.2133v-65.9199q0-16.96-7.46666-24-7.46665-7.04-18.66663-7.04-8.106658 0-14.399981 2.88-6.186657 2.7734-9.706651 9.4933-3.519995 6.6134-3.519995 18.24v66.3466zm170.986238 2.56q-14.39998 0-24.95996-6.9333-10.45332-7.04-16.10664-19.84-5.54666-12.9067-5.54666-30.4 0-17.9199 5.65332-30.6133 5.75999-12.7999 16.21331-19.5199 10.45332-6.8267 24.74663-6.8267 10.87998 0 18.02663 3.0934 7.25333 3.0933 12.05332 7.1466v-44.7999l16.10664-7.8933v154.0264h-16.10664v-9.28q-4.69333 4.8-11.83998 8.32-7.03999 3.52-18.23997 3.52zm1.91999-14.72q9.27999 0 16.53331-4.2667 7.25332-4.2666 11.62665-11.9466v-53.4399q-3.30666-5.12-10.13332-10.1333-6.71999-5.0134-18.02664-5.0134-15.35997 0-23.67996 10.9867-8.21332 10.88-8.21332 31.3599 0 11.84 3.83999 21.5467 3.94667 9.5999 11.09332 15.2533 7.14666 5.6533 16.95997 5.6533zm266.34593 14.72q-15.57331 0-26.55996-7.7867-10.98665-7.7866-16.85331-20.7999-5.75999-13.0134-5.75999-28.5867 0-18.1333 6.07999-30.8266 6.07999-12.8 17.17331-19.4133 11.09331-6.72 25.91996-6.72 12.26664 0 22.39996 5.5467 10.23998 5.5466 16.42664 17.1733 6.18666 11.52 6.18666 29.8666 0 1.8133-.10667 4.5867-.10667 2.7733-.42667 6.4h-80.8532v-14.4h65.06656q-.10666-13.8667-4.79999-21.3333-4.58666-7.5733-11.19998-10.4533-6.61332-2.9867-12.69331-2.9867-16.74664 0-24.8533 10.7733-7.99999 10.6667-7.99999 28.5866 0 21.12 8.85332 33.3867 8.95999 12.1599 24.63996 12.1599 6.39999 0 12.90665-2.0266 6.50666-2.1334 12.90665-6.8267l8.85332 10.7733q-6.71999 5.44-15.89331 9.1733-9.06665 3.7334-19.4133 3.7334zm115.41298-2.56v-94.6132h-22.71996v-14.4h22.71996v-16.2133q0-7.68 2.45333-12.8 2.45333-5.12 6.61333-8.1066 4.26666-3.0934 9.59998-4.3733 5.43999-1.3867 11.41332-1.3867 7.67998 0 13.22664 1.6 5.54666 1.4933 10.02665 3.52v14.2933q-4.47999-2.1333-9.49332-3.3067-5.01332-1.28-11.83998-1.28-7.25332 0-10.66665 1.92-3.30666 1.92-4.26666 5.2267-.95999 3.3066-.95999 7.2533v13.6533h29.97328v14.4h-29.97328v94.6132zm-22.71996 0v-14.5067h67.83989v14.5067zm154.13293 0v-94.6132h-22.71997v-14.4h22.71997v-16.2133q0-7.68 2.45333-12.8 2.45333-5.12 6.61332-8.1066 4.26666-3.0934 9.59999-4.3733 5.43999-1.3867 11.41331-1.3867 7.67999 0 13.22665 1.6 5.54665 1.4933 10.02665 3.52v14.2933q-4.48-2.1333-9.49332-3.3067-5.01333-1.28-11.83998-1.28-7.25332 0-10.66665 1.92-3.30666 1.92-4.26666 5.2267-.96 3.3066-.96 7.2533v13.6533h29.97329v14.4h-29.97329v94.6132zm-22.71997 0v-14.5067h67.8399v14.5067zm163.09304-3.7333v-105.2799h16.10664v105.2799zm-30.07995 3.7333v-14.5067h76.26654v14.5067zm0-94.6132v-14.4h38.61327v14.4zm38.07994-35.9466q-4.37333 0-7.35999-2.9867-2.98666-2.9866-2.98666-7.36 0-4.5866 2.98666-7.68 2.98666-3.0933 7.35999-3.0933 4.58666 0 7.46665 3.0933 2.98666 3.0934 2.98666 7.68 0 4.3734-2.98666 7.36-2.87999 2.9867-7.46665 2.9867zm130.8795 133.1198q-20.9066 0-33.06661-14.8267-12.05331-14.9333-12.05331-42.1332 0-17.92 5.54666-30.72 5.54665-12.8 15.8933-19.6266 10.45336-6.8267 25.17326-6.8267 13.2267 0 22.9333 6.08 9.7067 5.9733 14.4 17.6l-14.8266 5.6533q-2.6667-6.2933-8.2134-10.4533-5.4399-4.2667-14.8266-4.2667-15.5733 0-22.5066 11.52-6.82668 11.52-6.82668 31.04 0 19.9466 6.93328 31.1466 7.04 11.0933 21.9733 11.0933 9.28 0 15.68-4.3733 6.5067-4.48 9.3867-12.16l14.6133 5.3333q-4.0534 12.0533-14.72 18.9867-10.6667 6.9333-25.4933 6.9333zm123.9462-6.2933v-105.2799h16.1066v105.2799zm-30.08 3.7333v-14.5067h76.2666v14.5067zm0-94.6132v-14.4h38.6133v14.4zm38.08-35.9466q-4.3733 0-7.36-2.9867-2.9867-2.9866-2.9867-7.36 0-4.5866 2.9867-7.68 2.9867-3.0933 7.36-3.0933 4.5866 0 7.4666 3.0933 2.9867 3.0934 2.9867 7.68 0 4.3734-2.9867 7.36-2.88 2.9867-7.4666 2.9867zm130.4531 133.1198q-15.5733 0-26.56-7.7867-10.9866-7.7866-16.8533-20.7999-5.76-13.0134-5.76-28.5867 0-18.1333 6.08-30.8266 6.08-12.8 17.1733-19.4133 11.0933-6.72 25.92-6.72 12.2666 0 22.3999 5.5467 10.24 5.5466 16.4267 17.1733 6.1866 11.52 6.1866 29.8666 0 1.8133-.1066 4.5867-.1067 2.7733-.4267 6.4h-80.8532v-14.4h65.0666q-.1067-13.8667-4.8-21.3333-4.5867-7.5733-11.2-10.4533-6.6133-2.9867-12.6933-2.9867-16.7467 0-24.8533 10.7733-8 10.6667-8 28.5866 0 21.12 8.8533 33.3867 8.96 12.1599 24.64 12.1599 6.4 0 12.9066-2.0266 6.5067-2.1334 12.9067-6.8267l8.8533 10.7733q-6.72 5.44-15.8933 9.1733-9.0667 3.7334-19.4133 3.7334zm86.3998-2.56v-109.0132h16.1066v19.4133l-2.6666-3.0933q2.9866-6.08 7.68-10.24 4.6933-4.2667 10.8799-6.4 6.1867-2.24 13.76-2.24 13.3333 0 22.2933 5.2267 9.0667 5.12 13.5467 16.2133 4.48 11.0933 4.48 29.0133v61.1199h-16.2134v-65.9199q0-16.96-7.4666-24-7.4667-7.04-18.6666-7.04-8.1067 0-14.4 2.88-6.1867 2.7734-9.7067 9.4933-3.52 6.6134-3.52 18.24v66.3466zm184.1061 2.56q-14.1867 0-20.3733-7.2533-6.1867-7.36-6.1867-19.2v-70.7199h-25.3866v-14.4h25.3866v-37.0133l16.1067-7.9999v45.0132h36.5866v14.4h-36.5866v64.5332q0 5.0134 1.0666 9.0667 1.1734 3.9466 4.48 6.2933 3.4134 2.24 10.4533 2.24 8.1067 0 12.6934-2.0267 4.5866-2.1333 7.6799-4.2666l-1.8133 16.4266q-4.2666 2.24-9.6 3.52-5.2266 1.3867-14.5066 1.3867zm238.7193 25.1733v-179.6264h45.8666v14.6133h-29.76v150.2931h29.76v14.72zm91.0931-27.7333v-109.0132h16.2133v18.9867l-2.3466-1.4934q3.2-9.7066 8.5333-14.8266 5.3333-5.2267 13.76-5.2267 9.4933 0 14.72 5.3333 5.3333 5.3334 7.2533 11.52 3.7333-6.8266 9.8133-11.84 6.08-5.0133 14.72-5.0133 13.6533 0 20.0533 8.8533 6.5066 8.7467 6.5066 27.84v74.8799h-16.2133v-66.7732q0-15.04-2.56-22.4-2.4533-7.36-10.9866-7.36-6.08 0-9.8133 4.2667-3.6267 4.2666-5.2267 11.3066-1.6 7.04-1.6 15.5733v65.3866h-16.2133v-69.2266q0-7.1466-.8533-13.3333-.8534-6.2933-3.6267-10.1333-2.7733-3.84-8.4267-3.84-5.8666 0-9.8133 4.2667-3.84 4.2666-5.76 11.3066-1.92 7.04-1.92 15.5733v65.3866zm178.9861 2.56q-11.4133 0-20.1599-4.0534-8.64-4.1599-13.5467-12.3733-4.9066-8.2133-4.9066-20.3733 0-12.5866 5.8666-20.4799 5.8667-8 15.2533-11.7333 9.4933-3.84 20.16-3.84 8 0 15.2533 1.6 7.2533 1.6 15.04 5.7599v-8.7466q0-10.56-3.3067-16.1066-3.3066-5.6534-8.7466-7.68-5.44-2.0267-11.52-2.0267-8.7467 0-18.3467 3.7333-9.4933 3.6267-16.2133 7.8933l-4.6933-13.6533q7.04-4.2666 17.92-8.1066 10.88-3.9467 22.8266-3.9467 6.08 0 12.48 1.6 6.5067 1.6 12.0533 5.76 5.6533 4.0533 9.1733 11.52 3.52 7.4666 3.52 19.3066v73.3866h-15.1466v-10.4533q-6.2933 5.76-14.6133 9.3866-8.32 3.6267-18.3467 3.6267zm1.92-14.08q10.6667 0 18.4533-5.12 7.7867-5.12 12.5867-10.9866v-20.2667q-5.12-3.3066-12.9067-5.8666-7.7866-2.56-15.5733-2.56-11.3066 0-19.6266 5.3333-8.32 5.3333-8.32 16.7466 0 10.1333 6.6133 16.4267 6.6133 6.2933 18.7733 6.2933zm146.3462 14.08q-14.1867 0-20.3733-7.2533-6.1867-7.36-6.1867-19.2v-70.7199h-25.3866v-14.4h25.3866v-37.0133l16.1067-7.9999v45.0132h36.5866v14.4h-36.5866v64.5332q0 5.0134 1.0666 9.0667 1.1734 3.9466 4.48 6.2933 3.4134 2.24 10.4533 2.24 8.1067 0 12.6934-2.0267 4.5866-2.1333 7.6799-4.2666l-1.8133 16.4266q-4.2667 2.24-9.6 3.52-5.2266 1.3867-14.5066 1.3867zm66.7732-2.56v-14.5067h22.7199v-80.1065h-22.7199v-14.4h38.3999v24.4266l-1.28-2.9866q3.6267-7.4667 10.7733-12.8 7.2533-5.44 16.1067-8.32 8.8533-2.88 17.2799-2.88 8.2134 0 14.08 1.4934 5.8667 1.3866 9.1733 3.5199v36.9067h-16.2133v-32.1067l4.48 7.8934q-2.6666-.8534-5.76-1.1734-2.9866-.32-6.6133-.32-10.3466 0-19.84 3.52-9.3866 3.52-15.3599 10.4533-5.8667 6.8267-5.8667 16.96v49.9199h32.4266v14.5067zm181.333-3.7333v-105.2799h16.1066v105.2799zm-30.08 3.7333v-14.5067h76.2666v14.5067zm0-94.6132v-14.4h38.6133v14.4zm38.08-35.9466q-4.3734 0-7.36-2.9867-2.9867-2.9866-2.9867-7.36 0-4.5866 2.9867-7.68 2.9866-3.0933 7.36-3.0933 4.5866 0 7.4666 3.0933 2.9867 3.0934 2.9867 7.68 0 4.3734-2.9867 7.36-2.88 2.9867-7.4666 2.9867zm79.0396 130.5598 40.4266-56.3199-37.8666-52.6933h17.7066l23.7866 33.0666q1.28 1.8134 2.56 3.84 1.3867 1.92 2.6667 3.84 1.28-1.92 2.56-3.84 1.28-2.0266 2.6666-3.84l23.7867-33.0666h17.7066l-37.8666 52.6933 40.4266 56.3199h-17.7066l-26.3467-36.6933q-1.3866-1.92-2.6666-3.84-1.28-1.92-2.56-3.9467-1.28 2.0267-2.6667 3.9467-1.28 1.92-2.56 3.84l-26.3466 36.6933zm165.9727 27.7333v-14.72h29.6533v-150.2931h-29.6533v-14.6133h45.8666v179.6264z"/><path d="m-452.98242 2235.8906-16.10742 7.7852a4.0004 4.0004 0 0 0 -2.25782 3.6015v146.2403a4.0004 4.0004 0 0 0 4 4h16.10547a4.0004 4.0004 0 0 0 4-4v-45.4649l15.33594-16.0488 32.13672 63.3242a4.0004 4.0004 0 0 0 3.56836 2.1895h17.70508a4.0004 4.0004 0 0 0 3.56054-5.8242l-39.78711-77.67 25.57227-26.7558a4.0004 4.0004 0 0 0 -2.89063-6.7637h-18.77343a4.0004 4.0004 0 0 0 -2.91602 1.2617l-33.51172 35.6895v-77.9649a4.0004 4.0004 0 0 0 -5.74023-3.5996zm726.59179.01-16.10742 7.8946a4.0004 4.0004 0 0 0 -2.23828 3.5918v37.2304c-2.01624-1.1604-4.14522-2.2586-6.47851-3.2539-5.44087-2.3522-11.97537-3.416-19.60157-3.416-10.16147 0-19.25811 2.4674-26.92382 7.4707-7.65267 4.9238-13.58204 12.1199-17.6836 21.2344a4.0004 4.0004 0 0 0 -.008.014c-4.0535 9.1013-5.99805 19.873-5.99805 32.2402 0 12.085 1.91449 22.7718 5.8711 31.9785a4.0004 4.0004 0 0 0 .0156.037c4.0275 9.1189 9.90785 16.4089 17.53125 21.543a4.0004 4.0004 0 0 0 .0391.025c7.73729 5.08 16.91429 7.5898 27.15625 7.5898 7.88571 0 14.57511-1.2172 20.02735-3.9433 2.18294-1.0763 4.15578-2.2933 6.05273-3.5606v.9434a4.0004 4.0004 0 0 0 4 4h16.10547a4.0004 4.0004 0 0 0 4-4v-154.0274a4.0004 4.0004 0 0 0 -5.75977-3.5918zm1270.58983.01-16.1054 8a4.0004 4.0004 0 0 0 -2.2208 3.582v33.0137h-21.3867a4.0004 4.0004 0 0 0 -4 4v14.4004a4.0004 4.0004 0 0 0 4 4h21.3867v66.7207c0 8.59 2.3208 16.058 7.125 21.7734a4.0004 4.0004 0 0 0 .018.021c5.1041 5.9841 13.2785 8.6582 23.418 8.6582 6.3714 0 11.4529-.446 15.5-1.5156 3.8106-.9193 7.3081-2.1923 10.4648-3.8496a4.0004 4.0004 0 0 0 2.1172-3.1035l1.8125-16.4258a4.0004 4.0004 0 0 0 -6.2461-3.7324c-1.8016 1.2425-4.1659 2.564-7.0449 3.9062-2.2625.9955-5.9986 1.6797-11.0586 1.6797-4.2271 0-6.9601-.7695-8.1992-1.5625-1.4648-1.0597-2.3379-2.2727-2.8809-4.0723-.5947-2.292-.9199-4.9405-.9199-7.9648v-60.5332h32.5879a4.0004 4.0004 0 0 0 4-4v-14.4004a4.0004 4.0004 0 0 0 -4-4h-32.5879v-41.0137a4.0004 4.0004 0 0 0 -5.7793-3.582zm657.0664 0-16.1074 8a4.0004 4.0004 0 0 0 -2.2207 3.582v33.0137h-21.3867a4.0004 4.0004 0 0 0 -4 4v14.4004a4.0004 4.0004 0 0 0 4 4h21.3867v66.7207c0 8.59 2.3207 16.058 7.125 21.7734a4.0004 4.0004 0 0 0 .018.021c5.104 5.9841 13.2784 8.6582 23.4179 8.6582 6.3714 0 11.453-.446 15.5-1.5156 3.8106-.9193 7.3081-2.1923 10.4649-3.8496a4.0004 4.0004 0 0 0 2.1172-3.1035l1.8125-16.4258a4.0004 4.0004 0 0 0 -6.2461-3.7324c-1.8017 1.2425-4.1659 2.564-7.0449 3.9062-2.2625.9955-5.9967 1.6797-11.0567 1.6797-4.2271 0-6.962-.7695-8.2011-1.5625-1.4649-1.0597-2.3379-2.2727-2.8809-4.0723-.5947-2.292-.918-4.9405-.918-7.9648v-60.5332h32.586a4.0004 4.0004 0 0 0 4-4v-14.4004a4.0004 4.0004 0 0 0 -4-4h-32.586v-41.0137a4.0004 4.0004 0 0 0 -5.7793-3.582zm-1558.32419 1.7168c-4.28005 0-8.41081.4984-12.36719 1.5039-4.01961.9676-7.72075 2.6475-10.98633 5.0137-3.34614 2.4048-5.99529 5.6881-7.87891 9.6191-1.97234 4.1162-2.84765 8.9834-2.84765 14.5293v12.2129h-18.71875a4.0004 4.0004 0 0 0 -4 4v14.4004a4.0004 4.0004 0 0 0 4 4h18.71875v72.1074h-18.71875a4.0004 4.0004 0 0 0 -4 4v14.5059a4.0004 4.0004 0 0 0 4 4h22.71875 16.10742 29.01367a4.0004 4.0004 0 0 0 4-4v-14.5059a4.0004 4.0004 0 0 0 -4-4h-25.01367v-72.1074h25.97266a4.0004 4.0004 0 0 0 4-4v-14.4004a4.0004 4.0004 0 0 0 -4-4h-25.97266v-9.6523c0-2.3069.2796-4.3435.80078-6.1387.35201-1.2125.9458-2.0059 2.40625-2.8613 1.22762-.6845 4.21691-1.4004 8.68555-1.4004 4.3011 0 7.93101.4105 10.85156 1.1562a4.0004 4.0004 0 0 0 .0781.018c3.0759.7199 5.96282 1.7278 8.68359 3.0234a4.0004 4.0004 0 0 0 5.7207-3.6113v-14.293a4.0004 4.0004 0 0 0 -2.35156-3.6445c-3.20354-1.4492-6.73698-2.6836-10.5957-3.7246-4.16364-1.1975-8.92067-1.75-14.30664-1.75zm131.41406 0c-4.28005 0-8.41276.4984-12.36914 1.5039-4.01962.9676-7.7188 2.6475-10.98438 5.0137-3.34613 2.4048-5.99724 5.6881-7.88086 9.6191-1.97234 4.1162-2.8457 8.9834-2.8457 14.5293v12.2129h-18.7207a4.0004 4.0004 0 0 0 -4 4v14.4004a4.0004 4.0004 0 0 0 4 4h18.7207v72.1074h-18.7207a4.0004 4.0004 0 0 0 -4 4v14.5059a4.0004 4.0004 0 0 0 4 4h22.7207 16.10547 29.01367a4.0004 4.0004 0 0 0 4-4v-14.5059a4.0004 4.0004 0 0 0 -4-4h-25.01367v-72.1074h25.97461a4.0004 4.0004 0 0 0 4-4v-14.4004a4.0004 4.0004 0 0 0 -4-4h-25.97461v-9.6523c0-2.3068.28154-4.3435.80273-6.1387.35225-1.2133.94561-2.0072 2.40821-2.8633 1.22913-.6841 4.21789-1.3984 8.68359-1.3984 4.3011 0 7.92905.4105 10.84961 1.1562a4.0004 4.0004 0 0 0 .0781.018c3.07591.7199 5.96477 1.7278 8.68555 3.0234a4.0004 4.0004 0 0 0 5.71875-3.6113v-14.293a4.0004 4.0004 0 0 0 -2.34961-3.6445c-3.20354-1.4492-6.73893-2.6836-10.59765-3.7246-4.16365-1.1975-8.91871-1.75-14.30469-1.75zm1020.79683 0a4.0004 4.0004 0 0 0 -4 4v179.625a4.0004 4.0004 0 0 0 4 4h45.8672a4.0004 4.0004 0 0 0 4-4v-14.7187a4.0004 4.0004 0 0 0 -4-4h-25.7617v-142.293h25.7617a4.0004 4.0004 0 0 0 4-4v-14.6133a4.0004 4.0004 0 0 0 -4-4zm919.4629 0a4.0004 4.0004 0 0 0 -4 4v14.6133a4.0004 4.0004 0 0 0 4 4h25.6543v142.293h-25.6543a4.0004 4.0004 0 0 0 -4 4v14.7187a4.0004 4.0004 0 0 0 4 4h45.8672a4.0004 4.0004 0 0 0 4-4v-179.625a4.0004 4.0004 0 0 0 -4-4zm-1821.96676.2129c-3.85864 0-7.56953 1.5504-10.23828 4.3144-2.67726 2.773-4.10938 6.5331-4.10938 10.459 0 3.8262 1.47679 7.5062 4.1582 10.1875 2.68138 2.6814 6.36332 4.1582 10.18946 4.1582 3.91305 0 7.66141-1.4482 10.3164-4.1855 2.66573-2.6792 4.13672-6.3458 4.13672-10.1602 0-3.914-1.42629-7.6611-4.08789-10.4316-2.64047-2.819-6.42156-4.3418-10.36523-4.3418zm262.82616 0c-3.8586 0-7.5695 1.5504-10.2383 4.3144-2.6773 2.773-4.1093 6.5331-4.1093 10.459 0 3.8262 1.4767 7.5062 4.1582 10.1875 2.6813 2.6814 6.3633 4.1582 10.1894 4.1582 3.913 0 7.6614-1.4482 10.3164-4.1855 2.6658-2.6792 4.1367-6.3458 4.1367-10.1602 0-3.9116-1.4255-7.6558-4.0839-10.4258-2.6408-2.8228-6.4227-4.3476-10.3692-4.3476zm1314.1289 0c-3.8586 0-7.5695 1.5504-10.2383 4.3144-2.6773 2.773-4.1074 6.5331-4.1074 10.459 0 3.8262 1.4768 7.5062 4.1582 10.1875 2.6814 2.6815 6.3614 4.1582 10.1875 4.1582 3.913 0 7.6614-1.4482 10.3164-4.1855 2.6658-2.6792 4.1367-6.3458 4.1367-10.1602 0-3.914-1.4262-7.6611-4.0878-10.4316-2.6405-2.819-6.4216-4.3418-10.3653-4.3418zm-1826.66209 7.7871c4.8422 0 8.89374.513 12.11914 1.4434a4.0004 4.0004 0 0 0 .0684.019c2.64122.7111 4.8541 1.5941 7.0664 2.4766v5.5996c-1.48278-.4929-2.98508-.949-4.53125-1.3125-3.75764-.9565-8.01246-1.4004-12.80273-1.4004-5.18849 0-9.2962.56-12.62696 2.4336a4.0004 4.0004 0 0 0 -.0469.027c-2.9214 1.6963-5.17456 4.384-6.09961 7.5703-.7588 2.6136-1.11914 5.4137-1.11914 8.3692v13.6523a4.0004 4.0004 0 0 0 4 4h25.97266v6.4004h-25.97266a4.0004 4.0004 0 0 0 -4 4v76.1074h-8.10742v-76.1074a4.0004 4.0004 0 0 0 -4-4h-18.71875v-6.4004h18.71875a4.0004 4.0004 0 0 0 4-4v-16.2129c0-4.6941.76178-8.3618 2.06054-11.0722 1.38581-2.8922 3.14356-5.0072 5.33985-6.584a4.0004 4.0004 0 0 0 .0156-.012c2.41546-1.7512 5.1057-2.9835 8.18555-3.7226a4.0004 4.0004 0 0 0 .0547-.014c3.28709-.8379 6.75114-1.2617 10.42383-1.2617zm131.41406 0c4.84221 0 8.89179.513 12.11719 1.4434a4.0004 4.0004 0 0 0 .0684.019c2.64121.7111 4.8541 1.5941 7.0664 2.4766v5.5996c-1.48152-.4925-2.98059-.9492-4.52539-1.3125-3.75895-.9575-8.01411-1.4004-12.80664-1.4004-5.18849 0-9.29815.56-12.62891 2.4336a4.0004 4.0004 0 0 0 -.0469.027c-2.92141 1.6963-5.17456 4.384-6.09961 7.5703-.75881 2.6136-1.11914 5.4137-1.11914 8.3692v13.6523a4.0004 4.0004 0 0 0 4 4h25.97461v6.4004h-25.97461a4.0004 4.0004 0 0 0 -4 4v76.1074h-8.10547v-76.1074a4.0004 4.0004 0 0 0 -4-4h-18.7207v-6.4004h18.7207a4.0004 4.0004 0 0 0 4-4v-16.2129c0-4.6941.76178-8.3618 2.06055-11.0722 1.3858-2.8922 3.14161-5.0072 5.33789-6.584a4.0004 4.0004 0 0 0 .0156-.012c2.41546-1.7512 5.10569-2.9835 8.18555-3.7226a4.0004 4.0004 0 0 0 .0547-.014c3.28709-.8379 6.7531-1.2617 10.42578-1.2617zm1024.79683 0h37.8672v6.6133h-25.7617a4.0004 4.0004 0 0 0 -4 4v150.293a4.0004 4.0004 0 0 0 4 4h25.7617v6.7187h-37.8672zm919.4629 0h37.8672v171.625h-37.8672v-6.7187h25.6543a4.0004 4.0004 0 0 0 4-4v-150.293a4.0004 4.0004 0 0 0 -4-4h-25.6543zm-1825.96676.2129c2.15855 0 3.34071.5312 4.53906 1.8184a4.0004 4.0004 0 0 0 .0488.053c1.30495 1.3516 1.86523 2.7128 1.86523 4.9023 0 2.0051-.51365 3.2305-1.81445 4.5313a4.0004 4.0004 0 0 0 -.0527.053c-1.1835 1.2274-2.39639 1.7617-4.58593 1.7617-2.00498 0-3.23041-.5136-4.53125-1.8144-1.30081-1.3008-1.81641-2.5262-1.81641-4.5313 0-2.1895.56028-3.5507 1.86524-4.9023 1.31346-1.3604 2.50994-1.8711 4.48242-1.8711zm262.82616 0c2.1585 0 3.3407.5312 4.5391 1.8184a4.0004 4.0004 0 0 0 .049.053c1.305 1.3516 1.8652 2.7128 1.8652 4.9023 0 2.0051-.5155 3.2305-1.8164 4.5313a4.0004 4.0004 0 0 0 -.051.053c-1.1835 1.2274-2.3964 1.7617-4.5859 1.7617-2.0049 0-3.2323-.5135-4.5332-1.8144-1.3008-1.3008-1.8144-2.5262-1.8144-4.5313 0-2.1895.5602-3.5507 1.8652-4.9023 1.3135-1.3604 2.51-1.8711 4.4824-1.8711zm1314.1289 0c2.1585 0 3.3407.5312 4.5391 1.8184a4.0004 4.0004 0 0 0 .051.053c1.3049 1.3516 1.8632 2.7128 1.8632 4.9023 0 2.0051-.5136 3.2305-1.8144 4.5313a4.0004 4.0004 0 0 0 -.051.053c-1.1835 1.2274-2.3984 1.7617-4.5879 1.7617-2.005 0-3.2305-.5136-4.5312-1.8144-1.3009-1.3008-1.8145-2.5262-1.8145-4.5313 0-2.1895.5583-3.5507 1.8633-4.9023 1.3134-1.3603 2.5099-1.8711 4.4824-1.8711zm-2924.84569.029v80.7578a4.0004 4.0004 0 0 0 -.63867 1.6133v18.8789a4.0004 4.0004 0 0 0 .63867.9453v41.4551h-8.10547v-139.7305zm726.61133.039v143.6113h-8.10547v-5.2793a4.0004 4.0004 0 0 0 -6.86133-2.7969c-2.76106 2.8238-6.31682 5.3458-10.74609 7.5274a4.0004 4.0004 0 0 0 -.0215.012c-3.93442 1.9672-9.40357 3.0976-16.45118 3.0976-8.94768 0-16.40423-2.1108-22.74218-6.2656-6.302-4.2491-11.15167-10.1783-14.65821-18.1113-3.43271-7.9977-5.21289-17.5678-5.21289-28.7969 0-11.5195 1.82034-21.1518 5.30078-28.9727l.002-.01c.001 0 .003-.01.004-.01 3.57532-7.9392 8.44812-13.7476 14.72266-17.7813a4.0004 4.0004 0 0 0 .0234-.016c6.27005-4.0948 13.66849-6.1758 22.56054-6.1758 6.87423 0 12.35216.9954 16.4375 2.7637a4.0004 4.0004 0 0 0 .0195.01c4.54852 1.9398 8.21662 4.1384 11.04102 6.5234a4.0004 4.0004 0 0 0 6.58203-3.0566v-42.3047zm1270.60936.039v38.5586a4.0004 4.0004 0 0 0 4 4h32.5879v6.4004h-32.5879a4.0004 4.0004 0 0 0 -4 4v64.5332c0 3.6259.3849 6.9893 1.1992 10.084a4.0004 4.0004 0 0 0 .033.123c1.0131 3.4073 3.1147 6.3683 6 8.416a4.0004 4.0004 0 0 0 .1211.082c3.3302 2.1854 7.529 2.8945 12.6465 2.8945 5.7378 0 10.4559-.6639 14.3106-2.3672a4.0004 4.0004 0 0 0 .07-.031c.454-.2112.7343-.4382 1.1699-.6504l-.7148 6.4629c-2.0675.925-4.2867 1.7443-6.8086 2.3496a4.0004 4.0004 0 0 0 -.092.023c-2.9173.774-7.4931 1.2539-13.4805 1.2539-8.7704 0-14.1766-2.1612-17.3223-5.8437-3.4369-4.0961-5.2383-9.421-5.2383-16.6094v-70.7207a4.0004 4.0004 0 0 0 -4-4h-21.3867v-6.4004h21.3867a4.0004 4.0004 0 0 0 4-4v-34.5332zm657.0664 0v38.5586a4.0004 4.0004 0 0 0 4 4h32.586v6.4004h-32.586a4.0004 4.0004 0 0 0 -4 4v64.5332c0 3.6259.3829 6.9893 1.1973 10.084a4.0004 4.0004 0 0 0 .035.123c1.0131 3.4073 3.1127 6.3683 5.9981 8.416a4.0004 4.0004 0 0 0 .1211.082c3.3302 2.1854 7.5309 2.8945 12.6484 2.8945 5.7378 0 10.4539-.6639 14.3086-2.3672a4.0004 4.0004 0 0 0 .07-.031c.4544-.2114.7341-.44 1.17-.6524l-.7129 6.4649c-2.068.9253-4.288 1.7442-6.8106 2.3496a4.0004 4.0004 0 0 0 -.092.023c-2.9172.774-7.493 1.2539-13.4805 1.2539-8.7703 0-14.1766-2.1612-17.3222-5.8437-3.437-4.0961-5.2383-9.421-5.2383-16.6094v-70.7207a4.0004 4.0004 0 0 0 -4-4h-21.3867v-6.4004h21.3867a4.0004 4.0004 0 0 0 4-4v-34.5332zm-3276.8457 32c-8.3986 0-16.4826 1.3927-24.1719 4.1797-7.4289 2.6229-13.6307 5.4114-18.6464 8.4512a4.0004 4.0004 0 0 0 -1.711 4.7226l4.6934 13.6524a4.0004 4.0004 0 0 0 5.9277 2.0761c4.1934-2.6624 9.3618-5.1897 15.4961-7.5332a4.0004 4.0004 0 0 0 .023-.01c6.0176-2.3401 11.6345-3.4629 16.8965-3.4629 3.6088 0 6.9532.5945 10.1231 1.7754 2.7349 1.0189 4.8644 2.8276 6.6914 5.9512a4.0004 4.0004 0 0 0 .016.029c1.6327 2.7387 2.7422 7.4361 2.7422 14.0586v2.5117c-3.4285-1.4589-6.8309-2.6934-10.1777-3.4316-5.1377-1.1333-10.5153-1.6934-16.1153-1.6934-7.5832 0-14.8332 1.3735-21.6386 4.1231-.0009.0003 0 0 0 0-6.8946 2.7426-12.6474 7.159-16.9824 13.0625-.0009 0 0 0 0 0-4.5165 6.0787-6.6543 13.8505-6.6543 22.8613 0 8.6447 1.7558 16.2042 5.4727 22.4258 3.6487 6.1078 8.8256 10.8346 15.2461 13.9258a4.0004 4.0004 0 0 0 .053.025c6.4334 2.9813 13.7594 4.4238 21.8418 4.4238 7.1668 0 13.8592-1.3079 19.9453-3.9609 3.2166-1.4021 6.1966-3.0855 9.0137-4.9531v2.3535a4.0004 4.0004 0 0 0 4 4h15.1465a4.0004 4.0004 0 0 0 4-4v-73.3867c0-8.2898-1.206-15.2964-3.9004-21.0118-2.5713-5.4542-6.0459-9.8823-10.4199-13.0312-4.0931-3.0647-8.6149-5.2323-13.4649-6.4258-4.5524-1.1373-9.0403-1.7168-13.4414-1.7168zm255.78713 0c-9.76481 0-18.67715 2.4873-26.375 7.461-7.71203 4.9117-13.74238 12.0842-17.99024 21.1816-.0006 0-.001 0-.002 0s-.003.01-.004.01c-4.28728 9.116-6.34961 19.9189-6.3496 32.3047 0 13.1072 2.2005 24.3024 6.82812 33.4805 4.53914 9.0026 10.67472 16.0133 18.33789 20.705 7.56311 4.6305 15.93517 6.9883 24.80859 6.9883 8.31445 0 15.25422-1.3137 20.77149-4.3164.003 0 .005 0 .008-.01 2.09748-1.1277 4.01822-2.475 5.83399-3.9395v5.3281c0 4.3493-.99343 8.1525-2.99805 11.6758a4.0004 4.0004 0 0 0 -.0254.045c-1.71717 3.1124-5.08006 5.9882-10.66406 8.3907-5.38782 2.3179-13.92462 3.9998-25.33008 4.6953a4.0004 4.0004 0 0 0 -3.17969 6.0644l7.68164 12.6934a4.0004 4.0004 0 0 0 3.58203 1.9258c7.3115-.2955 14.19705-1.3328 20.63672-3.1289 6.63686-1.8309 12.57519-4.7286 17.70117-8.6895 5.2502-4.057 9.36807-9.479 12.30078-16.0391 3.00517-6.722 4.40039-14.816 4.40039-24.246v-106.0274a4.0004 4.0004 0 0 0 -4-4h-16.10546a4.0004 4.0004 0 0 0 -4 4v1.0254c-2.7292-2.0097-5.97161-3.6977-9.85743-5.0898-4.52418-1.7225-9.84944-2.4942-16.00976-2.4942zm136.74609 0c-10.48712 0-19.91811 2.4092-27.98828 7.2969-.001.0007-.003 0-.004 0-8.07914 4.8233-14.37022 11.9766-18.70898 21.1055-.00062 0-.001 0-.002 0s-.003.01-.004.01c-4.37014 9.1291-6.4668 20.0124-6.4668 32.543 0 10.8753 2.0245 20.9895 6.10352 30.2051a4.0004 4.0004 0 0 0 .01.025c4.17274 9.2559 10.27942 16.8152 18.1875 22.4199 8.05187 5.7067 17.82416 8.5234 28.87304 8.5234 7.37371 0 14.386-1.3401 20.92188-4.0293h.008c6.42452-2.6154 12.07261-5.8621 16.89453-9.7656a4.0004 4.0004 0 0 0 .57227-5.6484l-8.85352-10.7735a4.0004 4.0004 0 0 0 -5.45508-.6855c-3.9678 2.9097-7.88446 4.9648-11.75586 6.2383-3.97332 1.2349-7.8552 1.8398-11.6914 1.8398-9.41111 0-16.09422-3.3191-21.4043-10.5156-3.26639-4.5307-5.47192-10.3382-6.76758-17.2168h72.01172a4.0004 4.0004 0 0 0 3.98438-3.6485c.21775-2.4679.365-4.6622.43945-6.5976.0724-1.8824.10937-3.453.10937-4.7402 0-12.6789-2.1203-23.2968-6.66211-31.7559-4.42948-8.3203-10.48992-14.7059-18.04492-18.7988-7.34847-4.0195-15.53119-6.0313-24.30664-6.0313zm131.41211 0c-10.48388 0-19.91195 2.4084-27.98047 7.293-8.08387 4.8233-14.37823 11.9787-18.71875 21.1113-.00061 0-.001 0-.002 0s-.003.01-.004.01c-4.37014 9.1291-6.46679 20.0124-6.46679 32.543 0 10.8753 2.02254 20.9895 6.10156 30.2051a4.0004 4.0004 0 0 0 .0117.025c4.17275 9.2559 10.27747 16.8152 18.18554 22.4199 8.05188 5.7067 17.82418 8.5234 28.87305 8.5234 7.37306 0 14.38648-1.3406 20.92188-4.0293h.002c6.42695-2.6159 12.077-5.8629 16.90039-9.7676a4.0004 4.0004 0 0 0 .57422-5.6484l-8.85352-10.7735a4.0004 4.0004 0 0 0 -5.45703-.6855c-3.9678 2.9097-7.88445 4.9648-11.75586 6.2383-3.97332 1.2349-7.8552 1.8398-11.6914 1.8398-9.41111 0-16.09421-3.3191-21.4043-10.5156-3.2664-4.5307-5.47192-10.3382-6.76758-17.2168h72.01172a4.0004 4.0004 0 0 0 3.98438-3.6485c.21775-2.4679.365-4.6622.43945-6.5976.0724-1.8824.10937-3.4529.10937-4.7402 0-12.6789-2.11834-23.2968-6.66015-31.7559-4.42949-8.3203-10.48994-14.7059-18.04492-18.7988-7.34849-4.0195-15.53315-6.0313-24.3086-6.0313zm527.359376 0c-8.398556 0-16.484531 1.3927-24.173828 4.1797-7.428939 2.6229-13.63074 5.4114-18.646484 8.4512a4.0004 4.0004 0 0 0 -1.708985 4.7226l4.69336 13.6524a4.0004 4.0004 0 0 0 5.925781 2.0761c4.193395-2.6624 9.363734-5.1897 15.498047-7.5332a4.0004 4.0004 0 0 0 .02148-.01c6.017528-2.3401 11.634484-3.4629 16.896485-3.4629 3.608874 0 6.95518.5945 10.125 1.7754 2.734892 1.0189 4.86249 2.8276 6.689453 5.9512a4.0004 4.0004 0 0 0 .01758.029c1.6327028 2.7387 2.7421874 7.4361 2.7421874 14.0586v2.5137c-3.4291944-1.4594-6.8302544-2.6952-10.1777344-3.4336-5.137628-1.1333-10.515243-1.6934-16.115234-1.6934-7.583207 0-14.833174 1.3735-21.638672 4.1231-.000818.0003-.0011 0-.002 0-6.899375 2.7446-12.656119 7.1645-16.992188 13.0742-4.512585 6.0775-6.648437 13.8466-6.648437 22.8535 0 8.6447 1.755819 16.2042 5.472656 22.4258 3.648751 6.1078 8.825657 10.8346 15.246094 13.9258a4.0004 4.0004 0 0 0 .05273.025c6.433315 2.9813 13.759391 4.4238 21.841797 4.4238 7.166709 0 13.859101-1.3079 19.945312-3.9609 3.216986-1.4023 6.198146-3.0852 9.0156254-4.9531v2.3535a4.0004 4.0004 0 0 0 4 4h15.1465376a4.0004 4.0004 0 0 0 4-4v-73.3867c0-8.2898-1.207932-15.2964-3.902344-21.0118-2.5725639-5.4569-6.0485938-9.8878-10.42578125-13.0371-4.08874615-3.0599-8.60526565-5.2248-13.44921875-6.4179h-.0059c-4.553723-1.1379-9.041108-1.7168-13.44336-1.7168zm130.453124 0c-5.434465 0-10.487962.8069-15.097655 2.4727-3.919009 1.3557-7.404555 3.4373-10.556641 5.9726v-1.8867a4.0004 4.0004 0 0 0 -4-4h-16.105468a4.0004 4.0004 0 0 0 -4 4v109.0137a4.0004 4.0004 0 0 0 4 4h16.105468a4.0004 4.0004 0 0 0 4-4v-66.3457c0-7.3474 1.160904-12.8106 3.050782-16.3614a4.0004 4.0004 0 0 0 .01367-.023c2.004665-3.827 4.516397-6.2277 7.798829-7.6992a4.0004 4.0004 0 0 0 .0293-.014c3.604606-1.6495 7.803622-2.5156 12.734375-2.5156 6.62855 0 11.67239 1.9407 15.92383 5.9492 3.81124 3.5935 6.20898 10.3702 6.20898 21.0899v65.9199a4.0004 4.0004 0 0 0 4 4h16.21484a4.0004 4.0004 0 0 0 4-4v-61.1192c0-12.28-1.50478-22.4227-4.77148-30.5117-3.25284-8.0546-8.40059-14.2956-15.26172-18.1797-6.71544-3.9115-14.88499-5.7617-24.28711-5.7617zm393.49219 0c-10.48713 0-19.91811 2.4092-27.98828 7.2969-.001.0007-.003 0-.004 0-8.07915 4.8233-14.37023 11.9766-18.70898 21.1055-.00062 0-.001 0-.002 0s-.003.01-.004.01c-4.37014 9.1291-6.4668 20.0124-6.4668 32.543 0 10.8753 2.0245 20.9895 6.10352 30.2051a4.0004 4.0004 0 0 0 .01.025c4.17275 9.2559 10.27943 16.8152 18.1875 22.4199 8.05188 5.7067 17.82417 8.5234 28.87305 8.5234 7.37306 0 14.38453-1.3406 20.91992-4.0293h.002c6.42695-2.6159 12.077-5.8629 16.90039-9.7676a4.0004 4.0004 0 0 0 .57422-5.6484l-8.85351-10.7735a4.0004 4.0004 0 0 0 -5.45508-.6855c-3.9678 2.9097-7.88445 4.9648-11.75586 6.2383-3.97332 1.2349-7.85521 1.8398-11.69141 1.8398-9.4111 0-16.09421-3.3191-21.40429-10.5156-3.2664-4.5307-5.47193-10.3382-6.76758-17.2168h72.01172a4.0004 4.0004 0 0 0 3.98437-3.6485c.21776-2.4679.36501-4.6622.43946-6.5976.0724-1.8824.10937-3.4529.10937-4.7402 0-12.6789-2.12029-23.2968-6.66211-31.7559-4.42949-8.3203-10.48993-14.7059-18.04492-18.7988-7.34848-4.0195-15.5312-6.0313-24.30664-6.0313zm527.57228 0c-10.4316 0-19.6728 2.4554-27.36134 7.4766a4.0004 4.0004 0 0 0 -.0156.01c-7.58275 5.0031-13.40593 12.2472-17.36133 21.375-3.96854 9.1582-5.875 19.9512-5.875 32.3106 0 18.7241 4.15843 33.7673 12.93946 44.6465a4.0004 4.0004 0 0 0 .0195.023c8.81947 10.7536 21.27681 16.291 36.16011 16.291 10.5079 0 19.8527-2.4963 27.6739-7.5801 7.805-5.0733 13.3638-12.2457 16.3301-21.0664a4.0004 4.0004 0 0 0 -2.42-5.0312l-14.6133-5.334a4.0004 4.0004 0 0 0 -5.1152 2.3535c-1.662 4.4321-4.2247 7.732-7.9101 10.2696-3.5211 2.4023-7.8599 3.6679-13.4122 3.6679-8.9562 0-14.575-2.9183-18.582-9.2207-4.0554-6.5627-6.3242-16.1976-6.3242-29.0195 0-12.5383 2.2192-22.1577 6.2598-28.9844 3.9397-6.5402 9.6825-9.5742 19.0742-9.5742 5.6517 0 9.6099 1.2591 12.3574 3.4141a4.0004 4.0004 0 0 0 .068.051c3.1694 2.3771 5.417 5.2448 6.9297 8.8145a4.0004 4.0004 0 0 0 5.1093 2.1777l14.8262-5.6543a4.0004 4.0004 0 0 0 2.2832-5.2343c-3.3955-8.4118-8.7919-15.0596-15.9961-19.4981-7.1614-4.4825-15.6191-6.6836-25.0449-6.6836zm260.9062 0c-10.4839 0-19.9139 2.4084-27.9824 7.293-8.0838 4.8233-14.3782 11.9787-18.7187 21.1113-.0007 0 0 0 0 0v.01c-4.3701 9.1291-6.4668 20.0124-6.4668 32.543 0 10.8753 2.0225 20.9895 6.1016 30.2051a4.0004 4.0004 0 0 0 .012.025c4.1728 9.2559 10.2794 16.8152 18.1875 22.4199 8.0519 5.7067 17.8242 8.5234 28.873 8.5234 7.3731 0 14.3845-1.3406 20.92-4.0293 6.4269-2.6159 12.077-5.8629 16.9004-9.7676a4.0004 4.0004 0 0 0 .5742-5.6484l-8.8535-10.7735a4.0004 4.0004 0 0 0 -5.4551-.6855c-3.9678 2.9097-7.8864 4.9648-11.7578 6.2383-3.9733 1.2349-7.8552 1.8398-11.6914 1.8398-9.4111 0-16.0942-3.3191-21.4043-10.5156-3.2664-4.5307-5.4719-10.3381-6.7676-17.2168h72.0118a4.0004 4.0004 0 0 0 3.9843-3.6485c.2178-2.4679.365-4.6622.4395-6.5976.072-1.8824.1094-3.453.1094-4.7402 0-12.6788-2.1184-23.2968-6.6602-31.7559-4.4295-8.3203-10.4899-14.7059-18.0449-18.7988-7.3485-4.0195-15.5312-6.0313-24.3067-6.0313zm132.1582 0c-5.4329 0-10.4851.806-15.0937 2.4707-3.9196 1.3556-7.4061 3.4391-10.5586 5.9746v-1.8867a4.0004 4.0004 0 0 0 -4-4h-16.1074a4.0004 4.0004 0 0 0 -4 4v109.0137a4.0004 4.0004 0 0 0 4 4h16.1074a4.0004 4.0004 0 0 0 4-4v-66.3457c0-7.3474 1.1609-12.8106 3.0508-16.3614a4.0004 4.0004 0 0 0 .012-.023c2.0047-3.827 4.5183-6.2277 7.8008-7.6992a4.0004 4.0004 0 0 0 .027-.014c3.6046-1.6495 7.8056-2.5156 12.7363-2.5156 6.6285 0 11.6704 1.9407 15.9219 5.9492 3.8112 3.5935 6.211 10.3702 6.211 21.0899v65.9199a4.0004 4.0004 0 0 0 4 4h16.2129a4.0004 4.0004 0 0 0 4-4v-61.1192c0-12.28-1.5048-22.4227-4.7715-30.5117-3.2529-8.0546-8.4006-14.2956-15.2618-18.1797-6.7154-3.9115-14.8849-5.7617-24.2871-5.7617zm504.3184 0c-6.2593 0-11.8894 2.0648-16.1563 6.0488a4.0004 4.0004 0 0 0 -3.789-3.4902h-16.2149a4.0004 4.0004 0 0 0 -4 4v109.0137a4.0004 4.0004 0 0 0 4 4h16.2149a4.0004 4.0004 0 0 0 4-4v-65.3867c0-5.3889.6072-10.224 1.7793-14.5215 1.1526-4.2261 2.8155-7.382 4.8574-9.6582 1.9536-2.1032 3.9243-2.9668 6.8555-2.9668 2.8633 0 4.09.6675 5.1836 2.1816 1.3556 1.8771 2.4003 4.5989 2.9062 8.3301a4.0004 4.0004 0 0 0 0 .01c.5404 3.918.8164 8.1819.8164 12.7871v69.2266a4.0004 4.0004 0 0 0 4 4h16.2129a4.0004 4.0004 0 0 0 4-4v-65.3867c0-5.4389.5107-10.3348 1.5-14.6875.9573-4.2124 2.4619-7.3374 4.3554-9.5743 1.775-2.0196 3.6763-2.8847 6.7832-2.8847 2.2695 0 3.7517.4704 4.7871 1.164 1.0355.6937 1.8085 1.6676 2.4063 3.461a4.0004 4.0004 0 0 0 .016.049c1.429 4.1082 2.3379 11.2862 2.3379 21.0859v66.7735a4.0004 4.0004 0 0 0 4 4h16.2129a4.0004 4.0004 0 0 0 4-4v-74.8789c0-13.1691-2.1257-23.2544-7.2832-30.2032-5.0593-6.9814-13.3195-10.4902-23.2754-10.4902-6.5336 0-12.4947 1.9919-17.2656 5.9258-2.4945 2.0569-4.6594 4.3929-6.625 6.8848-1.3858-2.2119-3.0784-4.3126-5.0547-6.2911-4.3311-4.4099-10.4926-6.5195-17.5625-6.5195zm153.707 0c-8.3985 0-16.4845 1.3927-24.1738 4.1797-7.429 2.6229-13.6307 5.4114-18.6465 8.4512a4.0004 4.0004 0 0 0 -1.709 4.7226l4.6934 13.6524a4.0004 4.0004 0 0 0 5.9258 2.0761c4.1934-2.6624 9.3637-5.1897 15.498-7.5332a4.0004 4.0004 0 0 0 .021-.01c6.0175-2.3401 11.6345-3.4629 16.8965-3.4629 3.6089 0 6.9552.5945 10.125 1.7754 2.7349 1.0189 4.8625 2.8277 6.6894 5.9512a4.0004 4.0004 0 0 0 .018.029c1.6327 2.7387 2.7422 7.4361 2.7422 14.0586v2.5137c-3.4292-1.4594-6.8303-2.6952-10.1777-3.4336-5.1376-1.1333-10.5153-1.6934-16.1153-1.6934-7.5832 0-14.8331 1.3735-21.6386 4.1231-.0009.0003 0 0 0 0-6.8993 2.7446-12.6561 7.1645-16.9922 13.0742-4.5125 6.0775-6.6484 13.8466-6.6484 22.8535 0 8.6447 1.7559 16.2042 5.4726 22.4258 3.6488 6.1078 8.8257 10.8346 15.2461 13.9258a4.0004 4.0004 0 0 0 .053.025c6.4333 2.9813 13.7594 4.4238 21.8418 4.4238 7.1667 0 13.8591-1.3079 19.9453-3.9609 3.217-1.4023 6.1981-3.0851 9.0156-4.9531v2.3535a4.0004 4.0004 0 0 0 4 4h15.1465a4.0004 4.0004 0 0 0 4-4v-73.3867c0-8.2898-1.2079-15.2964-3.9024-21.0118-2.5725-5.4569-6.0486-9.8878-10.4257-13.0371-4.0888-3.0599-8.6053-5.2248-13.4493-6.4179h-.01c-4.5537-1.1379-9.0411-1.7168-13.4434-1.7168zm285.4395 0c-6.0735 0-12.2604 1.0407-18.5176 3.0762-6.2981 2.0487-12.0743 5.0287-17.2617 8.918-1.0935.8164-2.1046 1.6941-3.0938 2.5879v-8.0293a4.0004 4.0004 0 0 0 -4-4h-38.3984a4.0004 4.0004 0 0 0 -4 4v14.4004a4.0004 4.0004 0 0 0 4 4h18.7187v72.1074h-18.7187a4.0004 4.0004 0 0 0 -4 4v14.5059a4.0004 4.0004 0 0 0 4 4h71.7851a4.0004 4.0004 0 0 0 4-4v-14.5059a4.0004 4.0004 0 0 0 -4-4h-28.4257v-45.9199c0-5.9814 1.6254-10.5413 4.8964-14.3496 3.5235-4.0884 8.0208-7.1738 13.7285-9.3145 5.8807-2.1786 11.9963-3.2656 18.4356-3.2656 1.447 0 2.6335.1089 3.8925.1875v21.5195a4.0004 4.0004 0 0 0 4 4h16.2129a4.0004 4.0004 0 0 0 4-4v-36.9082a4.0004 4.0004 0 0 0 -1.83-3.3613c-2.7707-1.7875-6.2119-3.0509-10.3907-4.041-4.3359-1.1-9.3275-1.6094-15.0312-1.6094zm-2702.60549 2.5586a4.0004 4.0004 0 0 0 -3.74218 5.4141l39.4746 104.4218-15.80859 43.1895a4.0004 4.0004 0 0 0 3.75586 5.375h16.10547a4.0004 4.0004 0 0 0 3.75-2.6074l55.89258-150.3985a4.0004 4.0004 0 0 0 -3.74805-5.3945h-17.17383a4.0004 4.0004 0 0 0 -3.75976 2.6348l-27.54688 75.832-27.11328-75.8125a4.0004 4.0004 0 0 0 -3.76758-2.6543zm1195.62305 0a4.0004 4.0004 0 0 0 -4 4v14.4004a4.0004 4.0004 0 0 0 4 4h26.08008v72.1074h-26.08008a4.0004 4.0004 0 0 0 -4 4v14.5059a4.0004 4.0004 0 0 0 4 4h76.26562a4.0004 4.0004 0 0 0 4-4v-14.5059a4.0004 4.0004 0 0 0 -4-4h-26.08007v-90.5078a4.0004 4.0004 0 0 0 -4-4h-7.57227-8.5332zm262.82614 0a4.0004 4.0004 0 0 0 -4 4v14.4004a4.0004 4.0004 0 0 0 4 4h26.0801v72.1074h-26.0801a4.0004 4.0004 0 0 0 -4 4v14.5059a4.0004 4.0004 0 0 0 4 4h76.2657a4.0004 4.0004 0 0 0 4-4v-14.5059a4.0004 4.0004 0 0 0 -4-4h-26.0801v-90.5078a4.0004 4.0004 0 0 0 -4-4h-7.5723-8.5332zm1314.1289 0a4.0004 4.0004 0 0 0 -4 4v14.4004a4.0004 4.0004 0 0 0 4 4h26.0801v72.1074h-26.0801a4.0004 4.0004 0 0 0 -4 4v14.5059a4.0004 4.0004 0 0 0 4 4h76.2676a4.0004 4.0004 0 0 0 4-4v-14.5059a4.0004 4.0004 0 0 0 -4-4h-26.0801v-90.5078a4.0004 4.0004 0 0 0 -4-4h-7.5742-8.5332zm119.6797 0a4.0004 4.0004 0 0 0 -3.248 6.334l36.1894 50.3613-38.75 53.9863a4.0004 4.0004 0 0 0 3.2481 6.3321h17.707a4.0004 4.0004 0 0 0 3.25-1.668l26.3457-36.6914a4.0004 4.0004 0 0 0 .08-.1152l1.8594-2.7891c.6617.9712 1.3213 1.9427 2.0215 2.9121l26.3417 36.6856a4.0004 4.0004 0 0 0 3.2481 1.666h17.707a4.0004 4.0004 0 0 0 3.25-6.3321l-38.7519-53.9863 36.1894-50.3613a4.0004 4.0004 0 0 0 -3.248-6.334h-17.7071a4.0004 4.0004 0 0 0 -3.246 1.6641l-23.7872 33.0664.07-.094c-.7272.9509-1.4047 1.9815-2.086 3.0059-.6391-.982-1.278-1.9707-1.9219-2.8828a4.0004 4.0004 0 0 0 -.021-.029l-23.7871-33.0664a4.0004 4.0004 0 0 0 -3.2461-1.6641zm-645.3281 3.7813c-.01.01-.011.015-.018.021 0 0-.01 0-.012.01zm-2983.6758 1.6601c3.7025 0 7.5323.4861 11.5098 1.4805a4.0004 4.0004 0 0 0 .016 0c3.8131.9377 7.3153 2.6056 10.6094 5.0762a4.0004 4.0004 0 0 0 .068.051c3.1432 2.2535 5.7733 5.4914 7.8868 9.9746 1.9989 4.2401 3.1367 10.1046 3.1367 17.6016v69.3867h-7.1465v-6.4531a4.0004 4.0004 0 0 0 -6.6992-2.9512c-3.8564 3.5295-8.3375 6.4145-13.5117 8.6699-5.0071 2.1826-10.5459 3.2949-16.7481 3.2949-7.1243 0-13.2295-1.258-18.4531-3.6738-5.0851-2.4547-8.9324-5.9705-11.8203-10.8047-2.8254-4.7294-4.3399-10.7536-4.3399-18.3223 0-7.7695 1.7723-13.6485 5.0762-18.0937a4.0004 4.0004 0 0 0 .016-.019c3.4849-4.7522 7.8939-8.1508 13.5059-10.3828a4.0004 4.0004 0 0 0 .022-.01c5.8461-2.3647 12.029-3.5488 18.6601-3.5488 5.0666 0 9.8591.5058 14.3926 1.5059 4.4175.9744 9.0919 2.7523 14.0156 5.3828a4.0004 4.0004 0 0 0 5.8848-3.5293v-8.7461c0-7.4497-1.0917-13.4839-3.8613-18.1387-2.5817-4.4081-6.2807-7.7148-10.795-9.3965-4.0835-1.5213-8.4182-2.2793-12.916-2.2793-6.3964 0-13.0069 1.3674-19.7851 4.002-4.6896 1.792-8.7612 3.7593-12.541 5.8203l-2.0274-5.8965c3.968-2.1403 8.6006-4.2573 14.3516-6.2871a4.0004 4.0004 0 0 0 .033-.012c6.812-2.4711 13.9369-3.7051 21.4609-3.7051zm255.78713 0c5.48963 0 9.8933.7195 13.18555 1.9766a4.0004 4.0004 0 0 0 .082.029c3.68676 1.3167 6.50013 2.8249 8.45703 4.3789a4.0004 4.0004 0 0 0 .0449.035c2.35435 1.8163 4.06298 3.3909 5.06055 4.5547a4.0004 4.0004 0 0 0 7.03711-2.6015v-5.8145h8.10546v102.0274c0 8.6321-1.3058 15.6137-3.70507 20.9804-2.47172 5.5289-5.75027 9.7783-9.88672 12.9746-4.26067 3.2923-9.20106 5.7262-14.9375 7.3086a4.0004 4.0004 0 0 0 -.0117 0c-5.11051 1.4262-10.66154 2.2451-16.53125 2.627l-3.05469-5.0488c8.79614-.8878 15.9702-2.395 21.49414-4.7715 6.63914-2.8564 11.66031-6.7301 14.4961-11.8575 2.67861-4.7188 4.03125-10.0077 4.03125-15.6035v-15.3593a4.0004 4.0004 0 0 0 -7.28711-2.2813c-2.70995 3.9073-6.1045 6.9352-10.33985 9.2109a4.0004 4.0004 0 0 0 -.0234.012c-3.86576 2.1086-9.50201 3.3515-16.9629 3.3515-7.48211 0-14.25816-1.9096-20.63281-5.8125-6.27457-3.8416-11.37496-9.5606-15.36914-17.4824-3.9057-7.7463-5.97265-17.6705-5.97265-29.8789 0-11.5022 1.92032-21.1041 5.59375-28.9102a4.0004 4.0004 0 0 0 .004-.012c3.71367-7.9578 8.69892-13.7901 15.05664-17.8359a4.0004 4.0004 0 0 0 .0254-.016c6.37993-4.1245 13.60548-6.1856 22.04102-6.1856zm136.74609 0c7.57487 0 14.31929 1.6833 20.47852 5.0547a4.0004 4.0004 0 0 0 .0156.01c6.0941 3.3009 10.98234 8.3591 14.80078 15.5352a4.0004 4.0004 0 0 0 .008.014c3.70567 6.9003 5.71093 16.1932 5.71093 27.9747 0 1.1304-.0337 2.6181-.10351 4.4335-.0279.7255-.11828 1.7233-.16992 2.5528h-69.27344c-.1303-1.9101-.32031-3.7507-.32031-5.8125 0-.2085.0335-.3813.0351-.5879h57.51172a4.0004 4.0004 0 0 0 4-4.0293c-.0745-9.6791-1.696-17.5018-5.40234-23.4102-3.37439-5.5582-7.72375-9.7076-12.97656-12.0019-4.81926-2.1729-9.61454-3.332-14.31446-3.332-12.02217 0-21.84873 4.1295-28.04883 12.3691a4.0004 4.0004 0 0 0 -.004 0c-4.55413 6.0722-7.25239 13.616-8.29102 22.4004h-.0293a4.0004 4.0004 0 0 0 -4 4v14.4004a4.0004 4.0004 0 0 0 4 4h.7246c1.40389 8.4973 4.07425 15.9145 8.4043 21.914a4.0004 4.0004 0 0 0 .0234.031c6.63433 9.0037 16.374 13.7871 27.86133 13.7871 4.68887 0 9.40242-.7452 14.0957-2.207a4.0004 4.0004 0 0 0 .0566-.018c3.67841-1.2061 7.26441-3.1146 10.80274-5.3711l3.85351 4.6895c-3.42442 2.3491-7.16131 4.5117-11.54297 6.2949a4.0004 4.0004 0 0 0 -.0156.01c-5.54908 2.285-11.47397 3.4336-17.89063 3.4336-9.71553 0-17.65106-2.3752-24.24804-7.0508-6.73399-4.7726-11.85906-11.0728-15.50782-19.1562h-.002c-3.59981-8.1345-5.41602-17.0755-5.41602-26.9629 0-11.6418 1.95476-21.3047 5.6875-29.0977a4.0004 4.0004 0 0 0 .006-.014c3.76335-7.9229 8.91272-13.7012 15.60938-17.6934a4.0004 4.0004 0 0 0 .0234-.014c6.72009-4.0708 14.56754-6.1406 23.84765-6.1406zm131.41211 0c7.57486 0 14.32123 1.6833 20.48047 5.0547a4.0004 4.0004 0 0 0 .0156.01c6.09409 3.3009 10.98233 8.3591 14.80078 15.5352a4.0004 4.0004 0 0 0 .006.014c3.70567 6.9003 5.71093 16.1932 5.71093 27.9747 0 1.1304-.0337 2.6181-.10351 4.4335-.0279.7255-.11829 1.7233-.16992 2.5528h-69.27344c-.1303-1.9101-.32031-3.7507-.32031-5.8125 0-.2085.0335-.3813.0352-.5879h57.51172a4.0004 4.0004 0 0 0 4-4.0293c-.0745-9.6791-1.69404-17.5018-5.40039-23.4102-3.37439-5.5582-7.7257-9.7076-12.97852-12.0019-4.81925-2.1729-9.61453-3.332-14.31445-3.332-12.02217 0-21.84873 4.1295-28.04883 12.3691a4.0004 4.0004 0 0 0 -.004 0c-4.55413 6.0722-7.2524 13.616-8.29102 22.4004h-.0293a4.0004 4.0004 0 0 0 -4 4v14.4004a4.0004 4.0004 0 0 0 4 4h.72461c1.40389 8.4973 4.0762 15.9145 8.40625 21.914a4.0004 4.0004 0 0 0 .0234.031c6.63434 9.0037 16.37206 13.7871 27.85938 13.7871 4.68887 0 9.40241-.7452 14.0957-2.207a4.0004 4.0004 0 0 0 .0566-.018c3.67811-1.206 7.26664-3.113 10.80469-5.3691l3.85351 4.6875c-3.42458 2.3492-7.16299 4.5115-11.54492 6.2949a4.0004 4.0004 0 0 0 -.0156.01c-5.54909 2.285-11.47397 3.4336-17.89063 3.4336-9.71553 0-17.64911-2.3752-24.24609-7.0508-6.73399-4.7726-11.85905-11.0728-15.50781-19.1562h-.002c-3.5998-8.1345-5.41601-17.0755-5.41601-26.9629 0-11.6418 1.95475-21.3047 5.6875-29.0977a4.0004 4.0004 0 0 0 .006-.014c3.76335-7.9229 8.91075-13.7012 15.60742-17.6934a4.0004 4.0004 0 0 0 .0234-.014c6.72008-4.0708 14.56754-6.1406 23.84765-6.1406zm527.359376 0c3.702449 0 7.532247.4861 11.509766 1.4805a4.0004 4.0004 0 0 0 .01563 0c3.813106.9377 7.3133421 2.6056 10.6074218 5.0762a4.0004 4.0004 0 0 0 .070312.051c3.1431221 2.2535 5.7712597 5.4914 7.8847656 9.9746 1.9989133 4.2401 3.1386719 10.1046 3.1386718 17.6016v69.3867h-7.14648433v-6.4531a4.0004 4.0004 0 0 0 -6.70117187-2.9512c-3.856363 3.5295-8.335537 6.4145-13.509766 8.6699-5.007104 2.1826-10.547841 3.2949-16.75 3.2949-7.124296 0-13.227644-1.258-18.451172-3.6738-5.085111-2.4547-8.932359-5.9705-11.820312-10.8047-2.825375-4.7294-4.341797-10.7536-4.341797-18.3223 0-7.7696 1.774234-13.6485 5.078125-18.0937a4.0004 4.0004 0 0 0 .01563-.019c3.484957-4.7523 7.89388-8.1508 13.505859-10.3828a4.0004 4.0004 0 0 0 .02148-.01c5.846101-2.3647 12.029057-3.5488 18.660157-3.5488 5.066657 0 9.857157.5058 14.390625 1.5059 4.417485.9744 9.093778 2.7523 14.0175783 5.3828a4.0004 4.0004 0 0 0 5.88476557-3.5293v-8.7461c0-7.4548-1.09522837-13.4924-3.86914057-18.1484-.00102 0-.0009347 0-.00195-.01-2.5811726-4.4-6.2764733-7.7012-10.7851563-9.3809-4.083501-1.5213-8.420189-2.2793-12.917968-2.2793-6.396433 0-13.004947 1.3674-19.783203 4.002-4.690529 1.7923-8.762504 3.7608-12.542969 5.8223l-2.027344-5.8985c3.968059-2.1404 8.600331-4.2572 14.351563-6.2871a4.0004 4.0004 0 0 0 .0332-.012c6.812126-2.4711 13.938939-3.7051 21.46289-3.7051zm130.453124 0c8.3662 0 15.04994 1.6323 20.27735 4.6817a4.0004 4.0004 0 0 0 .0488.027c5.21301 2.9438 9.08887 7.5036 11.80469 14.2285 2.70662 6.7021 4.18945 15.9023 4.18945 27.5156v57.1192h-8.21484v-61.9199c0-11.8937-2.57835-21.117-8.72266-26.9102-5.70409-5.3782-13.1054-8.1289-21.41015-8.1289-5.873591 0-11.268992 1.0513-16.052737 3.2383-2.902796 1.3044-5.413347 3.2487-7.574219 5.6172v-3.8477c1.109636-1.4708 2.327702-2.8003 3.667969-3.9883a4.0004 4.0004 0 0 0 .03711-.033c2.727102-2.4792 5.849994-4.3222 9.492188-5.5781a4.0004 4.0004 0 0 0 .05859-.022c3.633176-1.3154 7.743923-2 12.398439-2zm393.49219 0c7.57486 0 14.31928 1.6833 20.47851 5.0547a4.0004 4.0004 0 0 0 .0156.01c6.09409 3.3009 10.98234 8.3591 14.80078 15.5352a4.0004 4.0004 0 0 0 .008.014c3.70568 6.9003 5.71094 16.1932 5.71094 27.9747 0 1.1304-.0337 2.6181-.10352 4.4335-.0279.7255-.11828 1.7233-.16992 2.5528h-69.27343c-.1303-1.9101-.32032-3.7507-.32032-5.8125 0-.2085.0315-.3813.0332-.5879h57.51367a4.0004 4.0004 0 0 0 4-4.0293c-.0744-9.6791-1.69599-17.5018-5.40235-23.4102-3.37439-5.5582-7.72375-9.7075-12.97656-12.0019-4.81925-2.1729-9.61453-3.332-14.31445-3.332-12.02218 0-21.84872 4.1295-28.04883 12.3691a4.0004 4.0004 0 0 0 -.004 0c-4.55412 6.0722-7.25239 13.616-8.29101 22.4004h-.0293a4.0004 4.0004 0 0 0 -4 4v14.4004a4.0004 4.0004 0 0 0 4 4h.72461c1.40389 8.4973 4.07427 15.9146 8.4043 21.914a4.0004 4.0004 0 0 0 .0234.031c6.63433 9.0037 16.374 13.7871 27.86132 13.7871 4.68887 0 9.40242-.7452 14.09571-2.207a4.0004 4.0004 0 0 0 .0566-.018c3.67841-1.2061 7.26441-3.1146 10.80273-5.3711l3.85352 4.6895c-3.42443 2.3491-7.16327 4.5117-11.54492 6.2949a4.0004 4.0004 0 0 0 -.0137.01c-5.54907 2.285-11.47396 3.4336-17.89062 3.4336-9.71554 0-17.65106-2.3752-24.24805-7.0508-6.73398-4.7726-11.85905-11.0728-15.50781-19.1562h-.002c-3.59981-8.1345-5.41602-17.0755-5.41602-26.9629 0-11.6418 1.95476-21.3047 5.6875-29.0977a4.0004 4.0004 0 0 0 .006-.014c3.76335-7.9229 8.91271-13.7012 15.60937-17.6934a4.0004 4.0004 0 0 0 .0234-.014c6.72009-4.0708 14.56754-6.1406 23.84766-6.1406zm527.57228 0c8.2049 0 15.0302 1.8493 20.8086 5.4688a4.0004 4.0004 0 0 0 .027.017c4.6628 2.8694 8.2618 6.8374 11 12.0079l-7.3906 2.8183c-1.9593-3.327-4.5548-6.221-7.709-8.5957-4.5028-3.5211-10.4176-5.1035-17.2695-5.1035-11.3685 0-20.6291 4.6433-25.93361 13.457a4.0004 4.0004 0 0 0 -.0156.023c-5.05626 8.5324-7.38476 19.5985-7.38476 33.0781 0 13.7612 2.34969 24.8817 7.53125 33.2519a4.0004 4.0004 0 0 0 .0254.039c5.37892 8.4759 14.40352 12.9492 25.34952 12.9492 6.8151 0 12.9273-1.6467 17.9375-5.0703a4.0004 4.0004 0 0 0 .012-.01c3.9065-2.6897 6.9884-6.2429 9.2011-10.4355l7.211 2.6308c-2.5445 5.4777-6.2899 9.8777-11.5801 13.3164-6.4011 4.1607-14.0536 6.2871-23.3145 6.2871-12.9857 0-22.5685-4.3452-29.96085-13.3515-7.2845-9.0316-11.15821-22.0739-11.15821-39.6094 0-11.534 1.7898-21.2204 5.2168-29.1289 3.43735-7.9324 8.20668-13.7686 14.41206-17.8672 6.249-4.0805 13.7902-6.1758 22.9844-6.1758zm260.9062 0c7.5749 0 14.3193 1.6833 20.4786 5.0547a4.0004 4.0004 0 0 0 .016.01c6.0941 3.3009 10.9823 8.3591 14.8008 15.5352a4.0004 4.0004 0 0 0 .01.014c3.7057 6.9003 5.711 16.1932 5.711 27.9747 0 1.1304-.034 2.618-.1036 4.4335-.028.7255-.1182 1.7233-.1699 2.5528h-69.2734c-.1303-1.9101-.3184-3.7507-.3184-5.8125 0-.2085.032-.3813.033-.5879h57.5117a4.0004 4.0004 0 0 0 4-4.0293c-.074-9.6791-1.694-17.5018-5.4003-23.4102-3.3745-5.5582-7.7258-9.7076-12.9786-12.0019-4.8192-2.1729-9.6125-3.332-14.3125-3.332-12.0222 0-21.8507 4.1295-28.0507 12.3691-4.5541 6.0722-7.2523 13.616-8.291 22.4004h-.029a4.0004 4.0004 0 0 0 -4 4v14.4004a4.0004 4.0004 0 0 0 4 4h.7266c1.4039 8.4973 4.0743 15.9146 8.4043 21.914a4.0004 4.0004 0 0 0 .023.031c6.6344 9.0037 16.3721 13.7871 27.8594 13.7871 4.6889 0 9.4025-.7452 14.0957-2.207a4.0004 4.0004 0 0 0 .057-.018c3.6781-1.206 7.2666-3.113 10.8046-5.3691l3.8536 4.6894c-3.4243 2.3488-7.1637 4.5099-11.545 6.293a4.0004 4.0004 0 0 0 -.016.01c-5.5491 2.285-11.472 3.4336-17.8887 3.4336-9.7155 0-17.651-2.3752-24.248-7.0508-6.734-4.7726-11.859-11.0728-15.5078-19.1562-3.5998-8.1345-5.416-17.0755-5.416-26.9629 0-11.6418 1.9548-21.3047 5.6875-29.0977a4.0004 4.0004 0 0 0 .01-.014c3.7633-7.9229 8.9107-13.7012 15.6074-17.6934a4.0004 4.0004 0 0 0 .025-.014c6.7201-4.0708 14.5675-6.1406 23.8476-6.1406zm132.1582 0c8.3662 0 15.0519 1.6323 20.2793 4.6817a4.0004 4.0004 0 0 0 .047.027c5.213 2.9438 9.0889 7.5036 11.8047 14.2285 2.7066 6.7021 4.1894 15.9023 4.1895 27.5156v57.1192h-8.2129v-61.9199c0-11.8937-2.5784-21.117-8.7227-26.9102-5.7041-5.3781-13.1055-8.1289-21.4102-8.1289-5.8752 0-11.2719 1.052-16.0566 3.2402-2.9017 1.3043-5.4101 3.2476-7.5703 5.6153v-3.8516c1.1089-1.4694 2.3268-2.7973 3.666-3.9844a4.0004 4.0004 0 0 0 .037-.033c2.7271-2.4792 5.852-4.3222 9.4942-5.5781a4.0004 4.0004 0 0 0 .057-.022c3.6332-1.3155 7.7439-2 12.3984-2zm504.3184 0c5.5798 0 9.2262 1.4419 11.8633 4.1328a4.0004 4.0004 0 0 0 .029.027c3.1784 3.1785 5.196 6.4431 6.2617 9.8769a4.0004 4.0004 0 0 0 7.3301.7344c2.248-4.1107 5.1718-7.6428 8.8476-10.6738 3.3358-2.7506 7.1895-4.0977 12.1758-4.0977 8.2376 0 13.3351 2.3876 16.8106 7.1953a4.0004 4.0004 0 0 0 .033.045c3.5058 4.7128 5.7148 13.1787 5.7148 25.4532v70.8789h-8.2129v-62.7735c0-10.2323-.7961-17.972-2.7715-23.6738-1.0385-3.1086-2.9115-5.8107-5.5351-7.5683-2.6268-1.7597-5.8208-2.5176-9.2403-2.5176-4.989 0-9.6247 1.9785-12.8222 5.6328a4.0004 4.0004 0 0 0 -.037.043c-2.933 3.4504-4.9074 7.8517-6.0801 13.0117-1.1441 5.0339-1.6992 10.5201-1.6992 16.459v61.3867h-8.2129v-65.2266c0-4.9236-.2953-9.5479-.8926-13.8789-.6324-4.6563-2.005-8.6887-4.3457-11.9297-2.6042-3.6058-6.9953-5.498-11.6699-5.498-4.8808 0-9.448 1.981-12.75 5.5508a4.0004 4.0004 0 0 0 -.035.041c-.2749.3054-.4464.7203-.707 1.041v-2.2188c1.5002-2.9943 3.1233-5.5814 4.957-7.3418a4.0004 4.0004 0 0 0 .029-.029c2.8034-2.7473 6.1682-4.082 10.959-4.082zm153.707 0c3.7025 0 7.5323.4861 11.5098 1.4805a4.0004 4.0004 0 0 0 .016 0c3.8132.9377 7.3134 2.6057 10.6074 5.0762a4.0004 4.0004 0 0 0 .07.051c3.1431 2.2535 5.7712 5.4914 7.8847 9.9746 1.9989 4.2401 3.1387 10.1046 3.1387 17.6016v69.3867h-7.1465v-6.4531a4.0004 4.0004 0 0 0 -6.7012-2.9512c-3.8563 3.5295-8.3355 6.4145-13.5097 8.6699-5.0071 2.1826-10.5478 3.2949-16.75 3.2949-7.1243 0-13.2277-1.258-18.4512-3.6738-5.0851-2.4547-8.9323-5.9705-11.8203-10.8047-2.8254-4.7294-4.3418-10.7536-4.3418-18.3223 0-7.7696 1.7743-13.6485 5.0781-18.0937a4.0004 4.0004 0 0 0 .016-.019c3.485-4.7523 7.894-8.1508 13.5059-10.3828a4.0004 4.0004 0 0 0 .021-.01c5.8461-2.3647 12.029-3.5488 18.6601-3.5488 5.0667 0 9.8572.5058 14.3907 1.5059 4.4174.9744 9.0937 2.7523 14.0175 5.3828a4.0004 4.0004 0 0 0 5.8848-3.5293v-8.7461c0-7.4548-1.0952-13.4924-3.8691-18.1484 0 0 0 0 0-.01-2.5811-4.4001-6.2765-7.7012-10.7851-9.3809-4.0836-1.5213-8.4202-2.2793-12.918-2.2793-6.3965 0-13.0049 1.3674-19.7832 4.002-4.6905 1.7923-8.7625 3.7608-12.543 5.8223l-2.0273-5.8985c3.968-2.1404 8.6003-4.2572 14.3515-6.2871a4.0004 4.0004 0 0 0 .033-.012c6.8122-2.4711 13.939-3.7051 21.4629-3.7051zm285.4395 0c5.2331 0 9.6151.4836 13.0937 1.3692a4.0004 4.0004 0 0 0 .066.016c2.5938.613 4.5082 1.347 6.0918 2.0957v30.4394h-8.2129v-16.4707a4.0004 4.0004 0 0 0 3.959-5.7187l-4.4804-7.8926a4.0004 4.0004 0 0 0 -7.4786 1.9746v2.5899c-1.2861-.07-2.4904-.1895-3.8925-.1895-7.3514 0-14.4574 1.2582-21.2305 3.7695a4.0004 4.0004 0 0 0 -.014 0c-6.805 2.5519-12.5463 6.4344-16.9863 11.5879-4.5488 5.2931-6.832 12.0409-6.832 19.5684v49.9199a4.0004 4.0004 0 0 0 4 4h28.4257v6.5059h-63.7851v-6.5059h18.7187a4.0004 4.0004 0 0 0 4-4v-80.1074a4.0004 4.0004 0 0 0 -4-4h-18.7187v-6.4004h30.3984v14.1426c-.2851.5215-.6166 1.0148-.8769 1.5508a4.0004 4.0004 0 0 0 -.078 3.3222l1.2793 2.9864a4.0004 4.0004 0 0 0 7.6758-1.5743v-3.83c2.019-3.2452 4.4925-6.2189 7.8867-8.752a4.0004 4.0004 0 0 0 .01-.01c4.4816-3.3613 9.44-5.9247 14.9433-7.7149 5.5472-1.8045 10.8809-2.6836 16.043-2.6836zm-3156.90822.086.0449.033c-.009-.01-.0208-.011-.0293-.018-.007-.01-.009-.01-.0156-.016zm386.27344 2.4726h7.68554l-18.09179 18.9316a4.0004 4.0004 0 0 0 -4.20508.6133l-11.41406 11.627a4.0004 4.0004 0 0 0 -.7129 4.6113l.0781.1543-11.49805 12.0313v-7.3301zm73.8164 0h7.71485l26.25 73.4004c.54764 1.5758 1.09781 3.2608 1.65039 5.0566a4.0004 4.0004 0 0 0 .0605.1778c.61698 1.7138 1.23871 3.5793 1.86328 5.5918a4.0004 4.0004 0 0 0 7.61524.078c.64266-1.928 1.24965-3.785 1.82226-5.5742.002-.01.004-.012.006-.018.62289-1.7983 1.24682-3.5641 1.86914-5.293l.004-.012 26.66602-73.4082h8.61718l-52.91992 142.4004h-7.60351l14.35351-39.2109a4.0004 4.0004 0 0 0 -.0156-2.7911zm397.464846 0h8.105468v6.8613c-.770489 1.2149-1.604776 2.3699-2.255859 3.6953a4.0004 4.0004 0 0 0 .560547 4.375l2.666015 3.0938a4.0004 4.0004 0 0 0 2.921875.75c-2.722396 5.2341-3.892578 11.8482-3.892578 19.8926v62.3457h-8.105468zm796.371094 0h22.08008v6.4004h-22.08008zm30.08008 0h.5332v6.4004h-.5332zm232.74606 0h22.0801v6.4004h-22.0801zm30.0801 0h.5332v6.4004h-.5332zm224.8516 0h8.1074v6.8574c-.7714 1.216-1.6061 2.3725-2.2578 3.6992a4.0004 4.0004 0 0 0 .5605 4.375l2.668 3.0938a4.0004 4.0004 0 0 0 2.9199.75c-2.7224 5.2341-3.8906 11.8482-3.8906 19.8926v62.3457h-8.1074zm513.9179 0h8.2149v6.7656c-.7784 1.725-1.5058 3.533-2.1465 5.4766a4.0004 4.0004 0 0 0 1.6523 4.6269l2.3457 1.4922a4.0004 4.0004 0 0 0 1.9434.062c-.6147 1.4889-1.2828 2.9223-1.7344 4.5782-1.3879 5.0891-2.0605 10.6361-2.0605 16.625v61.3867h-8.2149zm545.2793 0h22.0801v6.4004h-22.0801zm30.0801 0h.5332v6.4004h-.5332zm93.4004 0h7.8555l22.5683 31.3731c.8108 1.1486 1.6278 2.3724 2.4473 3.6699a4.0004 4.0004 0 0 0 .1387.207c.8959 1.2405 1.7571 2.4795 2.582 3.7168a4.0004 4.0004 0 0 0 6.6563 0l2.5585-3.8418a4.0004 4.0004 0 0 0 .055-.082c.7928-1.2552 1.6145-2.4373 2.4629-3.5469a4.0004 4.0004 0 0 0 .068-.094l22.5898-31.4024h7.8555l-33.3145 46.3594a4.0004 4.0004 0 0 0 0 4.666l35.8809 49.9883h-7.8594l-25.1504-35.0254a4.0004 4.0004 0 0 0 -.01-.01c-.8959-1.2405-1.7571-2.4794-2.5821-3.7168-.8343-1.2515-1.6694-2.5389-2.5058-3.8633a4.0004 4.0004 0 0 0 -6.7637 0c-.8096 1.282-1.652 2.5283-2.5273 3.7403a4.0004 4.0004 0 0 0 -.086.123l-2.5214 3.7813-25.1094 34.9707h-7.8594l35.8809-49.9883a4.0004 4.0004 0 0 0 0-4.666zm-3378.24413 4.0547c-11.83591 0-21.59032 4.2372-27.83204 12.5762-.00086 0-.001 0-.002 0-6.20089 8.2163-9.01953 19.5796-9.01953 33.7656 0 14.0538 3.26028 25.5375 10.19922 33.9121a4.0004 4.0004 0 0 0 .0273.031c6.89963 8.154 16.12659 12.5097 26.62696 12.5097 5.9765 0 11.83952-1.7953 17.3457-5.1777 5.57655-3.4256 10.05006-8.2389 13.26758-14.2031a4.0004 4.0004 0 0 0 .48047-1.8985v-51.5195a4.0004 4.0004 0 0 0 -.51368-1.959c-3.26747-5.8176-7.98897-10.3793-13.89453-13.4199-5.62447-3.0008-11.21254-4.6211-16.68554-4.6211zm1050.34375 0c-11.19369 0-20.60728 4.3014-26.86915 12.5703a4.0004 4.0004 0 0 0 -.004.01c-6.20269 8.2165-9.02149 19.5815-9.02149 33.7695 0 8.3258 1.35645 16.0291 4.1211 23.0176a4.0004 4.0004 0 0 0 .0195.051c2.84897 6.9298 6.96505 12.639 12.3125 16.8691 5.46311 4.3215 12.13109 6.5156 19.44141 6.5156 6.79969 0 13.08242-1.5959 18.56054-4.8183 5.43677-3.1981 9.84574-7.7465 13.07422-13.4161a4.0004 4.0004 0 0 0 .52539-1.9785v-53.4394a4.0004 4.0004 0 0 0 -.64062-2.1699c-2.55951-3.9632-6.29245-7.635-11.11133-11.1758-5.34059-3.9805-12.28384-5.8008-20.4082-5.8008zm2242.60738 7.373v75.0801h-8.1074v-72.1074h4.5332a4.0004 4.0004 0 0 0 3.5742-2.9727zm-1576.95699.01v75.0742h-8.10547v-72.1074h4.5332a4.0004 4.0004 0 0 0 3.57227-2.9668zm262.82619 0v75.0742h-8.1055v-72.1074h4.5332a4.0004 4.0004 0 0 0 3.5723-2.9668zm-1844.84768.4063c3.39835 0 7.05706.8309 11.04688 2.6328a4.0004 4.0004 0 0 0 .0488.021c3.54251 1.5428 6.64408 4.347 9.37695 8.8594a4.0004 4.0004 0 0 0 .0332.057c2.12568 3.3817 3.51665 8.5049 3.97461 15.2031h-52.75195c.97431-7.2062 3.19908-13.0421 6.61719-17.5996l-.002.01c4.60877-6.1248 11.34957-9.1796 21.65625-9.1796zm131.41211 0c3.39835 0 7.05705.8309 11.04688 2.6328a4.0004 4.0004 0 0 0 .0508.021c3.5425 1.5428 6.64213 4.347 9.375 8.8594a4.0004 4.0004 0 0 0 .0351.057c2.12568 3.3817 3.5147 8.5049 3.97266 15.2031h-52.75195c.97391-7.2033 3.19943-13.0371 6.61523-17.5938h.004c4.60866-6.121 11.34886-9.1738 21.65234-9.1738zm1051.30469 0c3.39835 0 7.05705.8309 11.04687 2.6328a4.0004 4.0004 0 0 0 .0488.021c3.54251 1.5428 6.64213 4.347 9.375 8.8594a4.0004 4.0004 0 0 0 .0352.057c2.12568 3.3817 3.51665 8.5049 3.97461 15.2031h-52.75391c.97392-7.2033 3.19943-13.0371 6.61524-17.5938h.002.002c4.60867-6.121 11.35082-9.1739 21.6543-9.1738zm788.47848 0c3.3984 0 7.0571.8309 11.0469 2.6328a4.0004 4.0004 0 0 0 .049.021c3.5425 1.5428 6.6421 4.347 9.375 8.8594a4.0004 4.0004 0 0 0 .035.057c2.1257 3.3817 3.5166 8.5049 3.9746 15.2031h-52.7539c.9739-7.2033 3.1994-13.0371 6.6152-17.5938 4.6087-6.121 11.3508-9.1738 21.6543-9.1738zm-2105.16793.2148c3.90544 0 8.19221 1.1503 12.9414 3.6875a4.0004 4.0004 0 0 0 .0566.029c4.32139 2.2191 7.59178 5.3249 10.09571 9.459v49.2168c-2.55228 4.4434-5.80259 7.8745-9.9336 10.4121-4.44936 2.7332-8.75444 3.9941-13.16015 3.9941-8.41044 0-14.89603-3.0387-20.50977-9.6679-5.42314-6.5579-8.34375-15.9728-8.34375-28.7852 0-13.1185 2.65785-22.6591 7.40625-28.9492a4.0004 4.0004 0 0 0 .01-.016c4.70984-6.3003 11.37818-9.3809 21.4375-9.3809zm1050.34375 0c6.94656 0 12.01658 1.5194 15.63476 4.2187a4.0004 4.0004 0 0 0 .0234.018c3.90285 2.8662 6.62922 5.6627 8.50195 8.3067v50.7656c-2.53238 4.1772-5.66932 7.4302-9.65625 9.7754-4.19297 2.4665-8.93028 3.7148-14.5039 3.7148-5.7741 0-10.41275-1.5748-14.47852-4.791-4.17445-3.3022-7.44921-7.7538-9.86133-13.6094-2.34963-5.9482-3.55469-12.601-3.55469-20.0527 0-13.1185 2.65785-22.6591 7.40625-28.9492 4.83104-6.3769 11.20425-9.3965 20.48829-9.3965zm1157.31838 6.4922s0 .011-.01.016c0 0 0 0-.01.01zm-2783.0215 11.1074a4.0004 4.0004 0 0 0 -4 4v15.6797a4.0004 4.0004 0 0 0 4 4h100.2676a4.0004 4.0004 0 0 0 4-4v-15.6797a4.0004 4.0004 0 0 0 -4-4zm974.02538 1.9902 35.53516 69.3692h-8.70703l-32.30078-63.6426zm-970.02538 6.0098h92.2676v7.6797h-92.2676zm306.4004 7.0391c-8.1667 0-15.5455 1.9669-21.7852 5.9668-6.638 4.2551-10.1621 11.5324-10.1621 20.1132 0 7.6258 2.67 14.3896 7.8555 19.3243 5.2958 5.0395 12.7345 7.3964 21.5312 7.3964 7.7511 0 14.7587-1.9033 20.6504-5.7773 5.4619-3.5914 9.9743-7.5067 13.4844-11.7969a4.0004 4.0004 0 0 0 .9043-2.5332v-20.2656a4.0004 4.0004 0 0 0 -1.8301-3.3613c-3.7944-2.4506-8.3967-4.5217-13.8262-6.3067-5.5669-1.8302-11.1928-2.7597-16.8222-2.7597zm1051.302716 0c-8.166694 0-15.545434 1.967-21.785157 5.9668-6.638044 4.2551-10.162109 11.5324-10.162109 20.1132 0 7.6258 2.671889 14.3896 7.857422 19.3243 5.295786 5.0395 12.732587 7.3964 21.529297 7.3964 7.751101 0 14.760657-1.9033 20.652343-5.7773 5.461843-3.5914 9.974242-7.5068 13.4843755-11.7969a4.0004 4.0004 0 0 0 .90429687-2.5332v-20.2656a4.0004 4.0004 0 0 0 -1.83007817-3.3613c-3.7944456-2.4506-8.3987202-4.5217-13.8281252-6.3067-5.566911-1.8302-11.192806-2.7597-16.822265-2.7597zm2102.607384 0c-8.1666 0-15.5454 1.967-21.7851 5.9668-6.6381 4.2551-10.1621 11.5324-10.1621 20.1132 0 7.6258 2.6719 14.3896 7.8574 19.3243 5.2958 5.0395 12.7326 7.3964 21.5293 7.3964 7.7511 0 14.7607-1.9033 20.6523-5.7773 5.4619-3.5914 9.9743-7.5067 13.4844-11.7969a4.0004 4.0004 0 0 0 .9043-2.5332v-20.2656a4.0004 4.0004 0 0 0 -1.8301-3.3613c-3.7944-2.4506-8.3987-4.5217-13.8281-6.3067-5.5669-1.8302-11.1928-2.7597-16.8223-2.7597zm-3153.9101 8c4.7527 0 9.5089.7762 14.3242 2.3593 4.0933 1.3458 7.3709 2.8612 10.1543 4.4434v16.2832c-2.7933 3.1975-6.3007 6.3045-10.7832 9.252-4.4906 2.9526-9.7848 4.4628-16.2559 4.4628-7.4166 0-12.4936-1.8398-16.0156-5.1914-3.6322-3.4565-5.3711-7.6439-5.3711-13.5293 0-6.6369 2.0233-10.5229 6.4785-13.3789 4.8536-3.1112 10.5599-4.7011 17.4688-4.7011zm1051.302716 0c4.752745 0 9.508923.7762 14.324218 2.3593 4.093492 1.3458 7.372742 2.8611 10.1562504 4.4434v16.2832c-2.7933624 3.1976-6.3025444 6.3045-10.7851564 9.252-4.490519 2.9526-9.78476 4.4628-16.255859 4.4628-7.416598 0-12.493647-1.8398-16.015625-5.1914-3.632231-3.4565-5.371094-7.6439-5.371094-13.5293 0-6.6369 2.025197-10.5229 6.480469-13.3789 4.853591-3.1112 10.557958-4.7011 17.466797-4.7011zm2102.607384 0c4.7528 0 9.509.7762 14.3243 2.3593 4.0935 1.3458 7.3727 2.8611 10.1562 4.4434v16.2832c-2.7934 3.1976-6.3025 6.3045-10.7851 9.252-4.4905 2.9526-9.7848 4.4628-16.2559 4.4628-7.4166 0-12.4937-1.8398-16.0156-5.1914-3.6323-3.4565-5.3711-7.6439-5.3711-13.5293 0-6.6369 2.0252-10.5229 6.4804-13.3789 4.8536-3.1112 10.558-4.7011 17.4668-4.7011zm-1475.56832 41.8144h14.71875v6.5059h-14.71875zm22.71875 0h8.10742v6.5059h-8.10742zm16.10742 0h21.01367v6.5059h-21.01367zm92.58594 0h14.7207v6.5059h-14.7207zm22.7207 0h8.10547v6.5059h-8.10547zm16.10547 0h21.01367v6.5059h-21.01367zm94.1875 0h22.08008v6.5059h-22.08008zm30.08008 0h8.10547v2.7735h-8.10547zm16.10547 0h22.08007v6.5059h-22.08007zm216.64059 0h22.0801v6.5059h-22.0801zm30.0801 0h8.1055v2.7735h-8.1055zm16.1055 0h22.0801v6.5059h-22.0801zm1267.9433 0h22.0801v6.5059h-22.0801zm30.0801 0h8.1074v2.7735h-8.1074zm16.1074 0h22.0801v6.5059h-22.0801z" fill="#fffafa"/></g><g><path d="m2074.831 2822.7438q-20.9066 0-33.0666-14.8266-12.0533-14.9333-12.0533-42.1333 0-17.9199 5.5467-30.7199 5.5466-12.8 15.8933-19.6267 10.4533-6.8266 25.1733-6.8266 13.2266 0 22.9333 6.08 9.7066 5.9733 14.4 17.5999l-14.8267 5.6534q-2.6667-6.2934-8.2133-10.4533-5.44-4.2667-14.8267-4.2667-15.5733 0-22.5066 11.52-6.8266 11.52-6.8266 31.0399 0 19.9467 6.9333 31.1466 7.04 11.0934 21.9733 11.0934 9.28 0 15.68-4.3734 6.5066-4.48 9.3866-12.1599l14.6133 5.3333q-4.0533 12.0533-14.72 18.9866-10.6666 6.9333-25.4933 6.9333zm120.7464-2.56v-147.7331l16.2133-6.2933v154.0264zm-30.2933 0v-14.5066h76.7999v14.5066zm3.84-139.6264-7.2533-14.4h49.9199l-6.9334 14.4zm161.0662 135.8931v-105.2798h16.1067v105.2798zm-30.0799 3.7333v-14.5066h76.2665v14.5066zm0-94.6131v-14.4h38.6132v14.4zm38.0799-35.9467q-4.3733 0-7.36-2.9866-2.9866-2.9867-2.9866-7.36 0-4.5867 2.9866-7.68 2.9867-3.0933 7.36-3.0933 4.5867 0 7.4667 3.0933 2.9866 3.0933 2.9866 7.68 0 4.3733-2.9866 7.36-2.88 2.9866-7.4667 2.9866zm130.453 133.1198q-15.5733 0-26.56-7.7866-10.9866-7.7867-16.8533-20.8-5.76-13.0133-5.76-28.5866 0-18.1333 6.08-30.8266 6.08-12.8 17.1733-19.4133 11.0933-6.72 25.92-6.72 12.2666 0 22.3999 5.5466 10.24 5.5467 16.4267 17.1733 6.1866 11.52 6.1866 29.8667 0 1.8133-.1066 4.5866-.1067 2.7734-.4267 6.4h-80.8532v-14.4h65.0666q-.1067-13.8666-4.8-21.3333-4.5867-7.5733-11.2-10.4533-6.6133-2.9866-12.6933-2.9866-16.7467 0-24.8533 10.7733-8 10.6666-8 28.5866 0 21.12 8.8533 33.3866 8.96 12.16 24.64 12.16 6.4 0 12.9066-2.0267 6.5067-2.1333 12.9067-6.8266l8.8533 10.7733q-6.72 5.44-15.8933 9.1733-9.0667 3.7333-19.4133 3.7333zm86.3997-2.56v-109.0131h16.1066v19.4133l-2.6666-3.0933q2.9866-6.08 7.6799-10.24 4.6934-4.2667 10.88-6.4 6.1867-2.24 13.76-2.24 13.3333 0 22.2933 5.2266 9.0667 5.12 13.5466 16.2133 4.48 11.0934 4.48 29.0133v61.1199h-16.2133v-65.9199q0-16.9599-7.4666-23.9999-7.4667-7.04-18.6667-7.04-8.1066 0-14.3999 2.88-6.1867 2.7733-9.7067 9.4933-3.52 6.6133-3.52 18.24v66.3465zm184.1062 2.56q-14.1867 0-20.3733-7.2533-6.1867-7.36-6.1867-19.2v-70.7198h-25.3866v-14.4h25.3866v-37.0133l16.1067-8v45.0133h36.5866v14.4h-36.5866v64.5332q0 5.0133 1.0666 9.0666 1.1734 3.9467 4.48 6.2934 3.4134 2.24 10.4533 2.24 8.1067 0 12.6934-2.0267 4.5866-2.1333 7.6799-4.2667l-1.8133 16.4267q-4.2666 2.24-9.6 3.52-5.2266 1.3866-14.5066 1.3866z"/><path d="m2161.8711 2662.1582a4.0004 4.0004 0 0 0 -3.5723 5.7988l7.252 14.4004a4.0004 4.0004 0 0 0 3.5742 2.1992h22.4531v117.1211h-26.2949a4.0004 4.0004 0 0 0 -4 4v14.5059a4.0004 4.0004 0 0 0 4 4h30.2949 16.2129 30.293a4.0004 4.0004 0 0 0 4-4v-14.5059a4.0004 4.0004 0 0 0 -4-4h-26.293v-135.5195a4.0004 4.0004 0 0 0 -.166-.3144 4.0004 4.0004 0 0 0 -1.5156-2.877 4.0004 4.0004 0 0 0 -.4453-.1543 4.0004 4.0004 0 0 0 -1.8731-.6543zm565.0449.416-16.1055 8a4.0004 4.0004 0 0 0 -2.2207 3.584v33.0117h-21.3867a4.0004 4.0004 0 0 0 -4 4v14.4004a4.0004 4.0004 0 0 0 4 4h21.3867v66.7207c0 8.59 2.3208 16.0581 7.125 21.7735a4.0004 4.0004 0 0 0 .018.021c5.1041 5.9841 13.2765 8.6582 23.416 8.6582 6.3714 0 11.4549-.446 15.502-1.5156 3.8106-.9193 7.3081-2.1923 10.4648-3.8496a4.0004 4.0004 0 0 0 2.1172-3.1035l1.8125-16.4258a4.0004 4.0004 0 0 0 -6.2461-3.7324c-1.8016 1.2425-4.1659 2.564-7.0449 3.9062-2.2625.9955-5.9986 1.6797-11.0586 1.6797-4.2288 0-6.9628-.7711-8.2012-1.5644-1.4615-1.0577-2.3339-2.2685-2.8769-4.0625-.596-2.2937-.9219-4.9452-.9219-7.9727v-60.5332h32.5879a4.0004 4.0004 0 0 0 4-4v-14.4004a4.0004 4.0004 0 0 0 -4-4h-32.5879v-41.0117a4.0004 4.0004 0 0 0 -5.7793-3.584zm-388.7265 1.9297c-3.8587 0-7.5676 1.5504-10.2364 4.3145-2.6772 2.7729-4.1093 6.533-4.1093 10.4589 0 3.8261 1.4768 7.5061 4.1582 10.1875 2.6814 2.6813 6.3614 4.1562 10.1875 4.1562 3.913 0 7.6633-1.4483 10.3183-4.1855 2.6656-2.6793 4.1367-6.3459 4.1367-10.1602 0-3.9116-1.4255-7.6558-4.084-10.4257-2.6407-2.8229-6.4245-4.3477-10.371-4.3477zm-169.8243 5.6543h24.7832a4.0004 4.0004 0 0 0 -1.5703 2.293v4.1054h-19.9902zm169.8243 2.3457c2.1585 0 3.3407.5313 4.539 1.8184a4.0004 4.0004 0 0 0 .051.053c1.3049 1.3515 1.8652 2.7127 1.8652 4.9023 0 2.005-.5156 3.2304-1.8164 4.5313a4.0004 4.0004 0 0 0 -.051.053c-1.1834 1.2273-2.3982 1.7617-4.5878 1.7617-2.005 0-3.2304-.5136-4.5313-1.8144-1.3008-1.3009-1.8144-2.5263-1.8144-4.5313 0-2.1896.5584-3.5508 1.8632-4.9023 1.3135-1.3604 2.51-1.8711 4.4825-1.8711zm386.5058.1074v38.5586a4.0004 4.0004 0 0 0 4 4h32.5879v6.4004h-32.5879a4.0004 4.0004 0 0 0 -4 4v64.5332c0 3.6259.3849 6.9893 1.1992 10.084a4.0004 4.0004 0 0 0 .033.123c1.0131 3.4074 3.1147 6.3683 6 8.4161a4.0004 4.0004 0 0 0 .1211.082c3.3302 2.1854 7.529 2.8945 12.6465 2.8945 5.7378 0 10.4559-.6639 14.3106-2.3672a4.0004 4.0004 0 0 0 .07-.031c.454-.2112.7343-.4381 1.1699-.6504l-.7148 6.4629c-2.0675.925-4.2867 1.7443-6.8086 2.3496a4.0004 4.0004 0 0 0 -.092.023c-2.9173.774-7.495 1.2539-13.4825 1.2539-8.7671 0-14.1722-2.1597-17.3183-5.8398-3.4388-4.0965-5.2403-9.423-5.2403-16.6133v-70.7207a4.0004 4.0004 0 0 0 -4-4h-21.3867v-6.4004h21.3867a4.0004 4.0004 0 0 0 4-4v-34.5332zm-520.9062.9434-1.4453 3.0019h-2.7657v-1.3671zm4.0019 9.1582v118.9648h-8.2129v-117.1211h5.2793a4.0004 4.0004 0 0 0 2.9336-1.8437zm-131.4668 21.8984c-10.4317 0-19.6708 2.4555-27.3594 7.4766a4.0004 4.0004 0 0 0 -.018.01c-7.5828 5.003-13.404 12.2471-17.3594 21.375-3.9686 9.1582-5.877 19.9512-5.877 32.3105 0 18.7242 4.1604 33.7673 12.9414 44.6465a4.0004 4.0004 0 0 0 .02.023c8.8194 10.7535 21.2749 16.291 36.1582 16.291 10.5079 0 19.8527-2.4963 27.6738-7.58 7.8051-5.0733 13.3658-12.2438 16.332-21.0645a4.0004 4.0004 0 0 0 -2.4199-5.0332l-14.6133-5.334a4.0004 4.0004 0 0 0 -5.1172 2.3535c-1.662 4.4321-4.2247 7.732-7.9101 10.2696-3.5211 2.4024-7.8579 3.6679-13.4102 3.6679-8.9533 0-14.5733-2.9167-18.58-9.2148-4.0574-6.5627-6.3282-16.2002-6.3282-29.0254 0-12.5382 2.2192-22.1577 6.2598-28.9844 3.9397-6.5402 9.6826-9.5742 19.0742-9.5742 5.6518 0 9.6098 1.2591 12.3574 3.4141a4.0004 4.0004 0 0 0 .068.053c3.1693 2.377 5.419 5.2427 6.9316 8.8125a4.0004 4.0004 0 0 0 5.1075 2.1777l14.8261-5.6543a4.0004 4.0004 0 0 0 2.2852-5.2343c-3.3956-8.4117-8.7939-15.0596-15.9981-19.4981-7.1614-4.4825-15.6191-6.6836-25.0449-6.6836zm392.3184 0c-10.4839 0-19.912 2.4084-27.9805 7.293-8.0838 4.8233-14.3782 11.9788-18.7187 21.1113-.0007 0 0 0 0 0v.01c-4.3701 9.1292-6.4668 20.0124-6.4668 32.543 0 10.8754 2.0225 20.9895 6.1016 30.2051a4.0004 4.0004 0 0 0 .012.025c4.1728 9.2559 10.2775 16.8151 18.1855 22.4199 8.0519 5.7066 17.8242 8.5234 28.8731 8.5234 7.373 0 14.3864-1.3407 20.9219-4.0293 6.4269-2.6159 12.077-5.8629 16.9004-9.7676a4.0004 4.0004 0 0 0 .5742-5.6484l-8.8535-10.7735a4.0004 4.0004 0 0 0 -5.457-.6855c-3.9711 2.9121-7.8911 4.969-11.7657 6.2422-3.9698 1.2329-7.8486 1.8379-11.6816 1.8379-9.4111 0-16.0942-3.3211-21.4043-10.5176-3.2664-4.5306-5.4719-10.3382-6.7676-17.2168h72.0117a4.0004 4.0004 0 0 0 3.9844-3.6484c.2178-2.4679.365-4.6622.4395-6.5977.072-1.8823.1094-3.453.1094-4.7402 0-12.6789-2.1184-23.2967-6.6602-31.7559-4.4273-8.316-10.4836-14.6998-18.0332-18.793h-.01c-7.3504-4.0222-15.5359-6.0352-24.3144-6.0352zm132.1601 0c-5.4344 0-10.4879.807-15.0976 2.4727-3.9181 1.3554-7.4031 3.4362-10.5547 5.9707v-1.8848a4.0004 4.0004 0 0 0 -4-4h-16.1074a4.0004 4.0004 0 0 0 -4 4v109.0137a4.0004 4.0004 0 0 0 4 4h16.1074a4.0004 4.0004 0 0 0 4-4v-66.3457c0-7.3475 1.1609-12.8107 3.0508-16.3613a4.0004 4.0004 0 0 0 .012-.023c2.0047-3.8271 4.5164-6.2278 7.7988-7.6992a4.0004 4.0004 0 0 0 .029-.012c3.6046-1.6496 7.8037-2.5176 12.7344-2.5176 6.6286 0 11.6723 1.9407 15.9238 5.9492 3.8112 3.5935 6.211 10.3703 6.211 21.0899v65.9199a4.0004 4.0004 0 0 0 4 4h16.2128a4.0004 4.0004 0 0 0 4-4v-61.1191c0-12.28-1.5047-22.4227-4.7714-30.5118-3.2528-8.0546-8.4006-14.2956-15.2618-18.1797-6.7154-3.9114-14.885-5.7617-24.2871-5.7617zm-300.6914 2.5586a4.0004 4.0004 0 0 0 -4 4v14.4004a4.0004 4.0004 0 0 0 4 4h26.0782v72.1074h-26.0782a4.0004 4.0004 0 0 0 -4 4v14.5059a4.0004 4.0004 0 0 0 4 4h76.2657a4.0004 4.0004 0 0 0 4-4v-14.5059a4.0004 4.0004 0 0 0 -4-4h-26.0801v-90.5078a4.0004 4.0004 0 0 0 -4-4h-7.5742-8.5332zm-223.7871 5.4414c8.2048 0 15.0321 1.8493 20.8106 5.4688a4.0004 4.0004 0 0 0 .027.018c4.6627 2.8693 8.2618 6.8374 11 12.0078l-7.3906 2.8183c-1.9593-3.3273-4.5566-6.2208-7.711-8.5957-4.5028-3.521-10.4175-5.1035-17.2695-5.1035-11.3685 0-20.6291 4.6433-25.9336 13.457a4.0004 4.0004 0 0 0 -.014.024c-5.0563 8.5324-7.3868 19.5985-7.3868 33.0781 0 13.7613 2.3517 24.8817 7.5332 33.252a4.0004 4.0004 0 0 0 .023.039c5.3789 8.476 14.4055 12.9492 25.3515 12.9492 6.8151 0 12.9253-1.6466 17.9356-5.0703a4.0004 4.0004 0 0 0 .012-.01c3.907-2.6901 6.9884-6.2442 9.2012-10.4375l7.2109 2.6328c-2.5444 5.4776-6.2899 9.8779-11.5801 13.3164-6.401 4.1607-14.0535 6.2871-23.3144 6.2871-12.9858 0-22.5686-4.3453-29.961-13.3515-7.2844-9.0315-11.1582-22.0738-11.1582-39.6094 0-11.5339 1.7898-21.2204 5.2168-29.1289 3.4374-7.9324 8.2067-13.7685 14.4121-17.8672 6.2489-4.0804 13.7901-6.1758 22.9844-6.1758zm392.3184 0c7.5748 0 14.3212 1.6834 20.4804 5.0547a4.0004 4.0004 0 0 0 .016.01c6.0941 3.301 10.9823 8.3592 14.8008 15.5352a4.0004 4.0004 0 0 0 .01.014c3.7057 6.9002 5.711 16.193 5.711 27.9746 0 1.1304-.034 2.6181-.1036 4.4336-.028.7254-.1182 1.7232-.1699 2.5527h-69.2734c-.1303-1.91-.3203-3.7507-.3203-5.8125 0-.2085.033-.3813.035-.5879h57.5117a4.0004 4.0004 0 0 0 4-4.0293c-.074-9.6791-1.694-17.5017-5.4004-23.4101-3.3744-5.5583-7.7257-9.7076-12.9785-12.002-4.8192-2.1728-9.6145-3.332-14.3144-3.332-12.0222 0-21.8488 4.1295-28.0488 12.3691a4.0004 4.0004 0 0 0 0 .01c-4.5541 6.0721-7.2523 13.614-8.291 22.3984h-.029a4.0004 4.0004 0 0 0 -4 4v14.4004a4.0004 4.0004 0 0 0 4 4h.7246c1.4039 8.4979 4.076 15.9143 8.4063 21.9141a4.0004 4.0004 0 0 0 .023.033c6.6344 9.0037 16.3721 13.7871 27.8594 13.7871 4.6889 0 9.4024-.7471 14.0957-2.209a4.0004 4.0004 0 0 0 .057-.018c3.6782-1.2059 7.2667-3.1129 10.8047-5.3691l3.8536 4.6875c-3.4246 2.3493-7.163 4.5116-11.545 6.2949a4.0004 4.0004 0 0 0 -.016.01c-5.5491 2.2849-11.474 3.4316-17.8906 3.4316-9.7156 0-17.6491-2.3752-24.2461-7.0507-6.7367-4.7746-11.8627-11.078-15.5117-19.1661-3.5977-8.1325-5.4141-17.0725-5.4141-26.957 0-11.6418 1.9548-21.3047 5.6875-29.0976a4.0004 4.0004 0 0 0 .01-.012c3.7633-7.9228 8.9107-13.703 15.6074-17.6953a4.0004 4.0004 0 0 0 .023-.014c6.7201-4.0709 14.5675-6.1407 23.8477-6.1407zm132.1601 0c8.3662 0 15.05 1.6324 20.2774 4.6817a4.0004 4.0004 0 0 0 .049.027c5.213 2.9438 9.0889 7.5037 11.8047 14.2285 2.7066 6.7022 4.1894 15.9024 4.1894 27.5157v57.1191h-8.2128v-61.9199c0-11.8936-2.5784-21.117-8.7227-26.9102-5.7041-5.3781-13.1073-8.1289-21.4121-8.1289-5.8736 0-11.269 1.0513-16.0527 3.2383-2.902 1.304-5.4118 3.2477-7.5723 5.6152v-3.8496c1.1089-1.4694 2.3268-2.7973 3.666-3.9844a4.0004 4.0004 0 0 0 .037-.033c2.7272-2.4792 5.852-4.3222 9.4942-5.5781a4.0004 4.0004 0 0 0 .057-.021c3.6332-1.3154 7.7439-2 12.3984-2zm-296.6914 2.5586h22.0782v6.4004h-22.0782zm30.0782 0h.5332v6.4004h-.5332zm224.8535 0h8.1074v6.8574c-.7714 1.2161-1.6061 2.3725-2.2578 3.6993a4.0004 4.0004 0 0 0 .5605 4.375l2.666 3.0937a4.0004 4.0004 0 0 0 2.9219.75c-2.723 5.2343-3.8906 11.8474-3.8906 19.8926v62.3457h-8.1074zm-216.7461 11.4297v75.0781h-8.1074v-72.1074h4.5332a4.0004 4.0004 0 0 0 3.5742-2.9707zm126.3457.4102c3.3984 0 7.057.831 11.0469 2.6328a4.0004 4.0004 0 0 0 .051.021c3.5425 1.5427 6.6421 4.3469 9.375 8.8593a4.0004 4.0004 0 0 0 .035.057c2.1257 3.3818 3.5147 8.505 3.9726 15.2031h-52.7519c.9739-7.2033 3.1994-13.0371 6.6152-17.5937 4.6087-6.121 11.3489-9.1738 21.6524-9.1738zm102.4961 6.709s0 .011-.01.016c0 0 0 0-.01.01zm-401.8555 75.9589h22.2949v6.5059h-22.2949zm30.2949 0h8.2129v6.5059h-8.2129zm16.2129 0h22.293v6.5059h-22.293zm88.3203 0h22.0782v6.5059h-22.0782zm30.0782 0h8.1074v2.7735h-8.1074zm16.1074 0h22.0801v6.5059h-22.0801z" fill="#fffafa"/></g></g></g></svg>